<!-- sample rectangle -->
 <svg xmlns="http://www.w3.org/2000/svg" width="1440" height="844" viewBox="0 0 1440 844" fill="none">
                <path
                    d="M-17 3.00002C-17 3.00002 285.187 96.1899 492.764 104.942C720.365 114.538 873.081 -19.8259 1100 3.00002C1353.5 28.4998 1410.69 116.456 1636.95 104.942C1834.4 94.8934 2120 3.00002 2120 3.00002V845H-17V3.00002Z"
                    fill="url(#paint0_linear_147_12644)"
                />
                <svg xmlns="http://www.w3.org/2000/svg" width="1440" height="841" viewBox="0 0 1440 841" fill="none">
                    <path
                        d="M-805 0C-805 0 -486.693 97.7276 -268.043 106.906C-28.3002 116.969 95.9015 30.6864 336.132 30.8382C575.163 30.9892 698.855 118.981 937.18 106.906C1145.17 96.368 1416.41 80.5 1416.41 80.5L1446 883H-805V0Z"
                        fill="#0B496F"
                        fill-opacity="0.5"
                    />
                </svg>
                <svg xmlns="http://www.w3.org/2000/svg" width="1440" height="848" viewBox="0 0 1440 848" fill="none">
                    <path
                        d="M-738 0C-738 0 -419.693 97.7276 -201.043 106.906C38.7 116.969 162.902 30.6864 403.132 30.8382C642.163 30.9892 765.855 118.981 1004.18 106.906C1212.17 96.368 1482 140 1482 140L1513 883H-738V0Z"
                        fill="#0B496F"
                        fill-opacity="0.5"
                    />
                </svg>
                <svg xmlns="http://www.w3.org/2000/svg" width="1440" height="862" viewBox="0 0 1440 862" fill="none">
                    <path
                        d="M-208 0C-208 0 68.1678 97.7276 257.872 106.906C465.876 116.969 573.635 30.6864 782.062 30.8382C989.45 30.9892 1096.77 118.981 1303.54 106.906C1483.99 96.368 1657.5 251.5 1657.5 251.5L1745 883H-208V0Z"
                        fill="#0B496F"
                        fill-opacity="0.5"
                    />
                </svg>
                <svg xmlns="http://www.w3.org/2000/svg" width="1440" height="848" viewBox="0 0 1440 848" fill="none">
                    <path
                        d="M-7 30.8382C-7 30.8382 252.623 97.7276 430.962 106.906C626.506 116.969 727.809 30.6864 923.75 30.8382C1118.71 30.9892 1219.6 118.981 1413.99 106.906C1583.63 96.368 1829 0 1829 0V883H-7V30.8382Z"
                        fill="#0B496F"
                        fill-opacity="0.5"
                    />
                </svg>

                <defs>
                    <linearGradient
                        id="paint0_linear_147_12644"
                        x1="860.25"
                        y1="-455.25"
                        x2="895.25"
                        y2="1380.25"
                        gradientUnits="userSpaceOnUse">
                        <stop stop-color="#092D5E" />
                        <stop offset="0.1" stop-color="#0B496F" />
                        <stop offset="0.21" stop-color="#0B496F" />
                        <stop offset="0.965292" stop-color="#13B0B0" />
                    </linearGradient>
                </defs>
            </svg>