<svg width="82" height="79" viewBox="0 0 82 79" fill="none" xmlns="http://www.w3.org/2000/svg">
<path d="M74.7284 2.98047H7.27703C4.96667 2.98047 3.09375 4.78487 3.09375 7.0107V71.9944C3.09375 74.2202 4.96667 76.0246 7.27703 76.0246H74.7284C77.0388 76.0246 78.9117 74.2202 78.9117 71.9944V7.0107C78.9117 4.78487 77.0388 2.98047 74.7284 2.98047Z" fill="#3D5A98"/>
<path d="M55.4005 76.0196V47.7339H65.2534L66.7268 36.7109H55.4005V29.675C55.4005 26.4841 56.323 24.3055 61.0701 24.3055H67.1304V14.4305C64.1957 14.1364 61.2466 13.9963 58.2962 14.0108C49.5709 14.0108 43.5618 19.1334 43.5618 28.5826V36.7109H33.709V47.7339H43.5618V76.0196H55.4005Z" fill="white"/>
</svg>
