<svg width="71" height="74" viewBox="0 0 71 74" fill="none" xmlns="http://www.w3.org/2000/svg">
<g clip-path="url(#clip0_147_11138)">
<path d="M54.3594 0H16.6406C7.45026 0 0 7.76506 0 17.3438V56.6562C0 66.2349 7.45026 74 16.6406 74H54.3594C63.5497 74 71 66.2349 71 56.6562V17.3438C71 7.76506 63.5497 0 54.3594 0Z" fill="url(#paint0_radial_147_11138)"/>
<path d="M54.3594 0H16.6406C7.45026 0 0 7.76506 0 17.3438V56.6562C0 66.2349 7.45026 74 16.6406 74H54.3594C63.5497 74 71 66.2349 71 56.6562V17.3438C71 7.76506 63.5497 0 54.3594 0Z" fill="url(#paint1_radial_147_11138)"/>
<path d="M35.5025 8.09375C27.9704 8.09375 27.0249 8.12815 24.0668 8.26834C21.1142 8.40941 19.0987 8.89648 17.3354 9.61133C15.511 10.3496 13.9637 11.3373 12.4222 12.9445C10.8794 14.5514 9.93168 16.1641 9.22113 18.0647C8.53331 19.9031 8.06543 22.0046 7.93259 25.0805C7.80029 28.1639 7.76562 29.1496 7.76562 37.0003C7.76562 44.8509 7.79891 45.8332 7.93314 48.9163C8.06904 51.9937 8.53636 54.0943 9.22168 55.9321C9.93057 57.8336 10.8783 59.4463 12.4203 61.0529C13.9615 62.6609 15.5088 63.651 17.3318 64.3892C19.0965 65.1041 21.1122 65.5912 24.0643 65.7322C27.0227 65.8724 27.9673 65.9068 35.4992 65.9068C43.0321 65.9068 43.9745 65.8724 46.9327 65.7322C49.8853 65.5912 51.9029 65.1041 53.6677 64.3892C55.4912 63.651 57.0363 62.6609 58.5772 61.0529C60.1201 59.4463 61.0675 57.8336 61.7783 55.933C62.46 54.0943 62.9282 51.9931 63.0669 48.9169C63.1997 45.8337 63.2344 44.8509 63.2344 37.0003C63.2344 29.1496 63.1997 28.1645 63.0669 25.0811C62.9282 22.0037 62.46 19.9034 61.7783 18.0655C61.0675 16.1641 60.1201 14.5514 58.5772 12.9445C57.0346 11.3367 55.4918 10.349 53.666 9.61162C51.8979 8.89648 49.8814 8.40912 46.9288 8.26834C43.9704 8.12815 43.0285 8.09375 35.4939 8.09375H35.5025ZM33.0144 13.3029C33.753 13.3018 34.577 13.3029 35.5025 13.3029C42.9079 13.3029 43.7854 13.3307 46.7097 13.4692C49.4138 13.5981 50.8815 14.069 51.8591 14.4647C53.1535 14.9885 54.0762 15.6149 55.0464 16.6269C56.0171 17.6386 56.6178 18.602 57.1217 19.9511C57.5014 20.9686 57.9538 22.4983 58.0769 25.3167C58.2097 28.364 58.2386 29.2791 58.2386 36.9936C58.2386 44.7081 58.2097 45.6236 58.0769 48.6706C57.9532 51.489 57.5014 53.0187 57.1217 54.0365C56.6192 55.3855 56.0171 56.3461 55.0464 57.3572C54.0757 58.3689 53.154 58.9951 51.8591 59.5191C50.8826 59.9166 49.4138 60.3863 46.7097 60.5152C43.7859 60.6537 42.9079 60.6838 35.5025 60.6838C28.0969 60.6838 27.2191 60.6537 24.2956 60.5152C21.5915 60.3852 20.1238 59.9143 19.1453 59.5185C17.8512 58.9945 16.9266 58.3684 15.9559 57.3567C14.9852 56.3449 14.3844 55.3838 13.8805 54.0342C13.5008 53.0164 13.0485 51.4867 12.9253 48.6683C12.7925 45.621 12.7659 44.7058 12.7659 36.9864C12.7659 29.2673 12.7925 28.3567 12.9253 25.3094C13.049 22.4911 13.5008 20.9614 13.8805 19.9424C14.3833 18.5934 14.9852 17.6299 15.9561 16.6182C16.9268 15.6065 17.8512 14.9801 19.1456 14.4551C20.1232 14.0577 21.5915 13.588 24.2956 13.4585C26.8541 13.3379 27.8456 13.3018 33.0144 13.2957V13.3029ZM50.3071 18.1025C48.4697 18.1025 46.979 19.6548 46.979 21.5701C46.979 23.4852 48.4697 25.0389 50.3071 25.0389C52.1445 25.0389 53.6352 23.4852 53.6352 21.5701C53.6352 19.6551 52.1445 18.1014 50.3071 18.1014V18.1025ZM35.5025 22.1555C27.637 22.1555 21.2598 28.8022 21.2598 37.0003C21.2598 45.1984 27.637 51.8419 35.5025 51.8419C43.3682 51.8419 49.7433 45.1984 49.7433 37.0003C49.7433 28.8025 43.3677 22.1555 35.5019 22.1555H35.5025ZM35.5025 27.3647C40.6081 27.3647 44.7475 31.6784 44.7475 37.0003C44.7475 42.3216 40.6081 46.6359 35.5025 46.6359C30.3966 46.6359 26.2578 42.3216 26.2578 37.0003C26.2578 31.6784 30.3966 27.3647 35.5025 27.3647Z" fill="white"/>
</g>
<defs>
<radialGradient id="paint0_radial_147_11138" cx="0" cy="0" r="1" gradientUnits="userSpaceOnUse" gradientTransform="translate(18.8594 79.6994) rotate(-90) scale(73.3395 65.4462)">
<stop stop-color="#FFDD55"/>
<stop offset="0.1" stop-color="#FFDD55"/>
<stop offset="0.5" stop-color="#FF543E"/>
<stop offset="1" stop-color="#C837AB"/>
</radialGradient>
<radialGradient id="paint1_radial_147_11138" cx="0" cy="0" r="1" gradientUnits="userSpaceOnUse" gradientTransform="translate(-11.8928 5.3306) rotate(79.1287) scale(32.733 129.854)">
<stop stop-color="#3771C8"/>
<stop offset="0.128" stop-color="#3771C8"/>
<stop offset="1" stop-color="#6600FF" stop-opacity="0"/>
</radialGradient>
<clipPath id="clip0_147_11138">
<rect width="71" height="74" fill="white"/>
</clipPath>
</defs>
</svg>
