<svg width="71" height="74" viewBox="0 0 71 74" fill="none" xmlns="http://www.w3.org/2000/svg">
<g clip-path="url(#clip0_147_11133)">
<path d="M54.3594 0H16.6406C7.45026 0 0 7.76506 0 17.3438V56.6562C0 66.2349 7.45026 74 16.6406 74H54.3594C63.5497 74 71 66.2349 71 56.6562V17.3438C71 7.76506 63.5497 0 54.3594 0Z" fill="white"/>
<path d="M54.3594 0H16.6406C7.45026 0 0 7.76506 0 17.3438V56.6562C0 66.2349 7.45026 74 16.6406 74H54.3594C63.5497 74 71 66.2349 71 56.6562V17.3438C71 7.76506 63.5497 0 54.3594 0Z" fill="#1D9BF0"/>
<path d="M55.35 26.4235C55.3806 26.8822 55.3806 27.341 55.3806 27.804C55.3806 41.9094 45.0778 58.1773 26.2387 58.1773V58.1686C20.6733 58.177 15.2231 56.5157 10.5391 53.3832C11.3484 53.4846 12.1615 53.5352 12.9769 53.5373C17.5897 53.5411 22.0698 51.9286 25.6973 48.9588C23.56 48.9167 21.4888 48.1796 19.7732 46.8505C18.0576 45.5214 16.7833 43.6667 16.1286 41.5458C17.6631 41.8542 19.245 41.7913 20.7525 41.3619C15.9744 40.3557 12.5368 35.9802 12.5368 30.8985V30.7632C13.9612 31.5901 15.5553 32.0483 17.1851 32.0992C12.6849 28.9643 11.2976 22.7243 14.015 17.8455C16.5863 21.1435 19.7946 23.8407 23.4312 25.7621C27.0679 27.6835 31.0518 28.7861 35.1239 28.9982C34.7179 27.1766 34.7779 25.2759 35.2978 23.486C35.8178 21.6962 36.7795 20.0801 38.0868 18.7992C42.212 14.7575 48.6999 14.9648 52.5777 19.262C54.8714 18.79 57.0709 17.9136 59.0817 16.6705C58.3171 19.1422 56.7171 21.2402 54.5793 22.5743C56.6096 22.325 58.5924 21.7586 60.4609 20.894C59.0864 23.0394 57.3557 24.9117 55.35 26.4235Z" fill="white"/>
</g>
<defs>
<clipPath id="clip0_147_11133">
<rect width="71" height="74" fill="white"/>
</clipPath>
</defs>
</svg>
