<svg width="71" height="74" viewBox="0 0 71 74" fill="none" xmlns="http://www.w3.org/2000/svg">
<g clip-path="url(#clip0_147_11125)">
<path d="M1.51418 36.5576C1.51252 42.775 3.08339 48.8459 6.07038 54.1968L1.22852 72.4794L19.3202 67.5736C24.3241 70.3908 29.9307 71.867 35.628 71.8673H35.643C54.4511 71.8673 69.7613 56.0396 69.7693 36.5854C69.7729 27.1584 66.2262 18.2939 59.7824 11.6247C53.3397 4.95612 44.7712 1.28165 35.6416 1.27734C16.8313 1.27734 1.52222 17.1042 1.51446 36.5576" fill="url(#paint0_linear_147_11125)"/>
<path d="M0.296758 36.5457C0.294816 42.9868 1.92199 49.2748 5.01548 54.8174L0 73.7553L18.7404 68.6737C23.904 71.5852 29.7177 73.1203 35.6334 73.1226H35.6487C55.1315 73.1226 70.9917 56.7256 71 36.5749C71.0033 26.8092 67.3291 17.6261 60.6551 10.718C53.9802 3.81071 45.1052 0.0040155 35.6487 0C16.1625 0 0.304523 16.3947 0.296758 36.5457ZM11.4573 53.8628L10.7576 52.7141C7.8161 47.8771 6.26353 42.2876 6.26575 36.548C6.27185 19.799 19.4523 6.1724 35.6598 6.1724C43.5086 6.17584 50.8848 9.34006 56.4328 15.0811C61.9805 20.8227 65.0332 28.455 65.0313 36.5726C65.0241 53.3216 51.8433 66.9499 35.6487 66.9499H35.637C30.3639 66.9471 25.1922 65.4825 20.6821 62.715L19.6088 62.0567L8.48783 65.0721L11.4573 53.8628Z" fill="url(#paint1_linear_147_11125)"/>
<path d="M26.8129 21.2676C26.1512 19.7466 25.4548 19.7159 24.8255 19.6892C24.3102 19.6663 23.7211 19.668 23.1326 19.668C22.5435 19.668 21.5864 19.8972 20.7774 20.8107C19.9675 21.7251 17.6855 23.9348 17.6855 28.429C17.6855 32.9235 20.8509 37.2668 21.2921 37.8769C21.7339 38.4858 27.4028 48.0037 36.381 51.6653C43.8427 54.7081 45.3611 54.1029 46.9805 53.9504C48.6002 53.7983 52.2068 51.7413 52.9426 49.6082C53.6789 47.4754 53.6789 45.6472 53.4582 45.2651C53.2374 44.8845 52.6483 44.6559 51.765 44.1993C50.8814 43.7424 46.5387 41.5324 45.7292 41.2275C44.9193 40.9229 44.3305 40.7709 43.7414 41.6856C43.1524 42.5988 41.4608 44.6559 40.9453 45.2651C40.4302 45.8758 39.9146 45.9518 39.0316 45.4949C38.1477 45.0365 35.303 44.0731 31.928 40.9614C29.3021 38.54 27.5293 35.5499 27.014 34.6352C26.4987 33.722 26.9588 33.2269 27.4017 32.7717C27.7986 32.3624 28.2853 31.705 28.7274 31.1718C29.1679 30.6384 29.3148 30.2577 29.6094 29.6485C29.9042 29.0387 29.7567 28.5053 29.5362 28.0484C29.3148 27.5914 27.5984 23.0737 26.8129 21.2676Z" fill="white"/>
</g>
<defs>
<linearGradient id="paint0_linear_147_11125" x1="3428.27" y1="7121.48" x2="3428.27" y2="1.27734" gradientUnits="userSpaceOnUse">
<stop stop-color="#1FAF38"/>
<stop offset="1" stop-color="#60D669"/>
</linearGradient>
<linearGradient id="paint1_linear_147_11125" x1="3550" y1="7375.53" x2="3550" y2="0" gradientUnits="userSpaceOnUse">
<stop stop-color="#F9F9F9"/>
<stop offset="1" stop-color="white"/>
</linearGradient>
<clipPath id="clip0_147_11125">
<rect width="71" height="74" fill="white"/>
</clipPath>
</defs>
</svg>
