<svg width="96" height="97" viewBox="0 0 96 97" fill="none" xmlns="http://www.w3.org/2000/svg">
<path d="M48 91.9486C71.7483 91.9486 91 72.4963 91 48.5007C91 24.505 71.7483 5.05273 48 5.05273C24.2518 5.05273 5 24.505 5 48.5007C5 72.4963 24.2518 91.9486 48 91.9486Z" fill="#00B5EF" stroke="#00B5EF" stroke-linecap="round" stroke-linejoin="round"/>
<path d="M48 58.6048C53.5228 58.6048 58 54.081 58 48.5007C58 42.9203 53.5228 38.3965 48 38.3965C42.4772 38.3965 38 42.9203 38 48.5007C38 54.081 42.4772 58.6048 48 58.6048Z" fill="white"/>
<path d="M44 57.7715C44 57.7715 46.4051 58.6043 48 58.6043C49.5949 58.6043 52 57.7715 52 57.7715V92.7993C52 92.7993 49.5633 92.9585 48 92.9585C46.4367 92.9585 44 92.7993 44 92.7993V57.7715Z" fill="white"/>
</svg>
