<svg width="704" height="650" viewBox="0 0 704 650" fill="none" xmlns="http://www.w3.org/2000/svg">
<path d="M779 571.211H0V571.647H779V571.211Z" fill="#EBEBEB"/>
<path d="M700.943 599.281H649.342V599.717H700.943V599.281Z" fill="#EBEBEB"/>
<path d="M516.042 604.027H502.503V604.464H516.042V604.027Z" fill="#EBEBEB"/>
<path d="M647.785 583.092H617.887V583.528H647.785V583.092Z" fill="#EBEBEB"/>
<path d="M149.022 586.023H81.7324V586.46H149.022V586.023Z" fill="#EBEBEB"/>
<path d="M172.767 586.023H162.905V586.46H172.767V586.023Z" fill="#EBEBEB"/>
<path d="M350.784 593.385H204.83V593.821H350.784V593.385Z" fill="#EBEBEB"/>
<path d="M369.245 493.397H68.4109C66.0542 493.392 63.7954 492.341 62.1304 490.473C60.4654 488.605 59.5303 486.074 59.5303 483.435V9.87492C59.5508 7.25095 60.495 4.74202 62.1578 2.89307C63.8205 1.04412 66.0676 0.00449498 68.4109 0H369.245C371.605 0 373.867 1.04958 375.536 2.91785C377.204 4.78611 378.141 7.32002 378.141 9.96215V483.435C378.141 486.077 377.204 488.611 375.536 490.479C373.867 492.347 371.605 493.397 369.245 493.397ZM68.4109 0.348938C66.1575 0.35356 63.9978 1.35922 62.4058 3.14519C60.8139 4.93116 59.9198 7.35149 59.9198 9.87492V483.435C59.9198 485.958 60.8139 488.378 62.4058 490.164C63.9978 491.95 66.1575 492.956 68.4109 492.961H369.245C371.5 492.956 373.661 491.951 375.256 490.165C376.85 488.38 377.748 485.96 377.752 483.435V9.87492C377.748 7.34989 376.85 4.92959 375.256 3.14413C373.661 1.35866 371.5 0.35355 369.245 0.348938H68.4109Z" fill="#EBEBEB"/>
<path d="M706.257 493.397H405.407C403.049 493.392 400.788 492.341 399.121 490.474C397.453 488.607 396.515 486.075 396.511 483.435V9.87492C396.535 7.24936 397.483 4.74044 399.148 2.89198C400.813 1.04351 403.062 0.00444596 405.407 0H706.257C708.597 0.00908021 710.84 1.05073 712.5 2.89919C714.159 4.74765 715.101 7.25397 715.122 9.87492V483.435C715.122 486.071 714.189 488.599 712.527 490.467C710.866 492.334 708.611 493.388 706.257 493.397ZM405.407 0.348938C403.152 0.35355 400.991 1.35866 399.396 3.14413C397.802 4.92959 396.904 7.34989 396.9 9.87492V483.435C396.904 485.96 397.802 488.38 399.396 490.165C400.991 491.951 403.152 492.956 405.407 492.961H706.257C708.512 492.956 710.673 491.951 712.267 490.165C713.862 488.38 714.759 485.96 714.763 483.435V9.87492C714.759 7.34989 713.862 4.92959 712.267 3.14413C710.673 1.35866 708.512 0.35355 706.257 0.348938H405.407Z" fill="#EBEBEB"/>
<path d="M310.401 442.783H297.267H288.604L312.878 465.29H317.334H321.307L315.636 455.642L332.182 465.29H336.17H340.875L310.401 442.783Z" fill="#E0E0E0"/>
<path d="M138.273 465.29H146.967L166.271 454.036L157.842 465.29H166.271L190.544 442.783H168.748L138.273 465.29Z" fill="#E0E0E0"/>
<path d="M161.799 465.29L181.882 442.783H168.748L138.273 465.29H142.979L166.271 450.948L157.842 465.29H161.799Z" fill="#F0F0F0"/>
<path d="M93.8857 465.289V572.029H387.444V465.289H93.8857ZM382.645 507.161H146.967V472.268H382.645V507.161Z" fill="#E0E0E0"/>
<path d="M140.547 465.289V572.029H387.443V465.289H140.547ZM382.645 507.161H146.966V472.268H382.645V507.161Z" fill="#EBEBEB"/>
<path d="M382.645 472.217H339.676V507.093H382.645V472.217Z" fill="#E0E0E0"/>
<path d="M209.192 489.646H146.966V507.093H209.192V489.646Z" fill="#E0E0E0"/>
<path d="M253.127 496.73H213.102V507.094H253.127V496.73Z" fill="#E0E0E0"/>
<path d="M309.574 485.895H262.382V507.092H309.574V485.895Z" fill="#E0E0E0"/>
<path d="M193.815 514.682L192.678 518.851H177.362L176.225 514.682H146.966V561.003H223.074V514.682H193.815Z" fill="#E0E0E0"/>
<path d="M273.49 514.682L272.352 518.851H257.053L255.915 514.682H226.641V561.003H302.765V514.682H273.49Z" fill="#E0E0E0"/>
<path d="M353.183 514.682L352.046 518.851H336.746L335.593 514.682H306.334V561.003H382.442V514.682H353.183Z" fill="#E0E0E0"/>
<path d="M335.734 301.498H133.521C130.484 301.498 128.021 304.255 128.021 307.657V439.607C128.021 443.009 130.484 445.766 133.521 445.766H335.734C338.771 445.766 341.234 443.009 341.234 439.607V307.657C341.234 304.255 338.771 301.498 335.734 301.498Z" fill="#E0E0E0"/>
<path d="M340.749 301.498H138.536C135.498 301.498 133.036 304.255 133.036 307.657V439.607C133.036 443.009 135.498 445.766 138.536 445.766H340.749C343.786 445.766 346.248 443.009 346.248 439.607V307.657C346.248 304.255 343.786 301.498 340.749 301.498Z" fill="#E6E6E6"/>
<path d="M339.972 438.752V308.512H139.286V438.752H339.972Z" fill="#F0F0F0"/>
<path d="M587.306 142.292C603.106 137.818 612.675 119.849 608.68 102.156C604.685 84.4625 588.638 73.7461 572.839 78.2199C557.039 82.6936 547.469 100.663 551.464 118.356C555.459 136.049 571.506 146.766 587.306 142.292Z" fill="#E0E0E0"/>
<path d="M604.449 116.649C607.632 101.55 599.281 86.4214 585.798 82.8578C572.315 79.2943 558.806 88.6452 555.623 103.744C552.441 118.842 560.791 133.971 574.274 137.534C587.757 141.098 601.267 131.747 604.449 116.649Z" fill="#F0F0F0"/>
<path d="M578.889 90.9492V110.577L567.267 103.214" fill="#F0F0F0"/>
<path d="M578.89 112.322C578.617 112.324 578.349 112.246 578.111 112.095L566.489 104.68C566.132 104.45 565.872 104.071 565.764 103.627C565.656 103.182 565.709 102.708 565.912 102.307C566.115 101.905 566.452 101.61 566.849 101.485C567.246 101.361 567.671 101.418 568.031 101.644L577.379 107.541V90.897C577.379 90.4343 577.543 89.9905 577.835 89.6633C578.128 89.3362 578.524 89.1523 578.937 89.1523C579.35 89.1523 579.747 89.3362 580.039 89.6633C580.331 89.9905 580.495 90.4343 580.495 90.897V110.525C580.495 110.987 580.331 111.431 580.039 111.758C579.747 112.086 579.35 112.269 578.937 112.269L578.89 112.322Z" fill="#E0E0E0"/>
<path d="M178.189 110.333C178.189 110.333 176.755 99.8651 183.61 93.0783C190.466 86.2915 189.842 82.3311 187.895 81.8076C185.947 81.2842 184.14 88.0187 181.133 89.8681C181.133 89.8681 181.024 80.2723 184.093 76.7306C187.163 73.1889 188.767 64.0816 185.838 63.9246C182.909 63.7676 182.629 69.3331 182.037 73.2761C181.208 76.6579 179.91 79.8726 178.189 82.8021C178.189 82.8021 177.55 74.2008 175.571 70.5893C173.592 66.9778 178.874 58.9697 176.833 55.428C174.792 51.8863 171.193 58.6382 171.489 66.2102C171.785 73.7821 176.319 81.9123 175.259 89.7983C175.259 89.7983 173.265 84.2502 171.474 83.7442C169.682 83.2383 167.89 79.557 166.675 78.1961C165.46 76.8353 163.98 81.5459 166.675 85.9251C169.37 90.3043 176.319 102.029 175.259 111.502L178.189 110.333Z" fill="#E6E6E6"/>
<path d="M182.287 105.555L184.515 121.257C184.68 122.4 184.621 123.57 184.342 124.686C184.063 125.801 183.571 126.835 182.9 127.717C182.228 128.598 181.394 129.305 180.454 129.789C179.515 130.274 178.492 130.523 177.458 130.521H175.074C174.039 130.523 173.016 130.273 172.076 129.789C171.136 129.305 170.3 128.598 169.628 127.717C168.955 126.836 168.462 125.802 168.181 124.687C167.9 123.572 167.838 122.401 168.001 121.257L170.244 105.555H182.287Z" fill="#E6E6E6"/>
<path d="M148.369 133.871L306.849 133.871V124.746L148.369 124.746V133.871Z" fill="#E0E0E0"/>
<path d="M292.578 124.762H299.558V91.1591H292.578V124.762Z" fill="#EBEBEB"/>
<path d="M258.814 124.762H265.794V91.1591H258.814V124.762Z" fill="#EBEBEB"/>
<path d="M215.399 123.434L222.277 124.762L227.377 91.6302L220.499 90.3025L215.399 123.434Z" fill="#EBEBEB"/>
<path d="M283.915 124.762H290.895V95.5731H283.915V124.762Z" fill="#EBEBEB"/>
<path d="M267.882 124.762H274.862V95.5731H267.882V124.762Z" fill="#EBEBEB"/>
<path d="M227.36 124.762H234.34V95.5731H227.36V124.762Z" fill="#EBEBEB"/>
<path d="M244.007 123.048L250.82 124.744L256.475 96.2508L249.662 94.555L244.007 123.048Z" fill="#EBEBEB"/>
<path d="M277.885 124.762H281.375V89.4842H277.885V124.762Z" fill="#EBEBEB"/>
<path d="M236.365 124.762H239.854V89.4842H236.365V124.762Z" fill="#EBEBEB"/>
<path d="M306.847 192.822H148.367V201.947H306.847V192.822Z" fill="#E0E0E0"/>
<path d="M162.639 159.221H155.659V192.841H162.639V159.221Z" fill="#EBEBEB"/>
<path d="M196.403 159.221H189.423V192.841H196.403V159.221Z" fill="#EBEBEB"/>
<path d="M234.729 158.37L227.851 159.697L232.95 192.829L239.829 191.501L234.729 158.37Z" fill="#EBEBEB"/>
<path d="M171.302 163.652H164.322V192.841H171.302V163.652Z" fill="#EBEBEB"/>
<path d="M187.35 163.652H180.37V192.841H187.35V163.652Z" fill="#EBEBEB"/>
<path d="M227.84 163.652H220.86V192.841H227.84V163.652Z" fill="#EBEBEB"/>
<path d="M205.582 162.627L198.769 164.322L204.423 192.816L211.237 191.12L205.582 162.627Z" fill="#EBEBEB"/>
<path d="M177.332 157.545H173.842V192.822H177.332V157.545Z" fill="#EBEBEB"/>
<path d="M218.868 157.545H215.378V192.822H218.868V157.545Z" fill="#EBEBEB"/>
<path d="M291.659 166.234H257.632V192.527H291.659V166.234Z" fill="#EBEBEB"/>
<path d="M389.502 650C556.336 650 691.582 641.157 691.582 630.25C691.582 619.342 556.336 610.5 389.502 610.5C222.667 610.5 87.4209 619.342 87.4209 630.25C87.4209 641.157 222.667 650 389.502 650Z" fill="#F5F5F5"/>
<path d="M141.074 565.523C141.074 564.999 139.516 513.182 132.022 505.069C124.824 497.253 116.535 504.79 116.177 505.069L115.18 503.726C115.273 503.639 124.902 494.846 133.097 503.726C141.027 512.345 142.569 563.202 142.632 565.366L141.074 565.523Z" fill="url(#paint0_linear_147_11882)"/>
<path d="M141.776 575.748C141.558 573.201 136.619 513.393 156.764 487.484L157.948 488.636C138.193 513.951 143.225 574.945 143.334 575.556L141.776 575.748Z" fill="url(#paint1_linear_147_11882)"/>
<path d="M141.356 569.205L139.798 569.082C139.798 568.385 143.74 499.103 129.048 483.994L130.107 482.703C145.329 498.388 141.527 566.308 141.356 569.205Z" fill="url(#paint2_linear_147_11882)"/>
<path d="M143.335 569.152H141.777C141.777 567.233 142.26 522.168 153.758 514.787C154.866 513.987 156.128 513.495 157.44 513.352C158.752 513.209 160.075 513.42 161.299 513.967C168.279 517.213 171.722 531.048 171.862 531.624L170.304 532.095C170.304 531.955 166.923 518.486 160.66 515.59C159.648 515.13 158.551 514.955 157.465 515.079C156.378 515.204 155.336 515.625 154.428 516.305C143.756 523.162 143.335 568.768 143.335 569.152Z" fill="url(#paint3_linear_147_11882)"/>
<path d="M138.832 569.188L137.274 569.083C137.274 568.734 138.988 533.649 130.559 521.314C128.534 518.383 126.368 516.97 124.078 517.162C118.625 517.58 114.014 526.583 113.982 526.67L112.611 525.815C112.829 525.414 117.675 515.905 123.969 515.347C126.805 515.12 129.438 516.743 131.759 520.197C140.593 533.108 138.91 567.722 138.832 569.188Z" fill="url(#paint4_linear_147_11882)"/>
<path d="M140.313 574.003C140.095 570.513 134.782 490.258 144.161 475.986L145.408 477.033C136.371 490.729 141.824 572.991 141.871 573.863L140.313 574.003Z" fill="url(#paint5_linear_147_11882)"/>
<path d="M163.713 522.29C163.713 522.29 158.12 524.61 159.787 530.071C161.454 535.532 179.168 544.517 179.168 544.517C179.168 544.517 186.584 536.893 179.776 524.506C172.968 512.118 163.869 518.382 163.713 522.29Z" fill="url(#paint6_linear_147_11882)"/>
<path opacity="0.2" d="M163.713 522.29C163.713 522.29 158.12 524.61 159.787 530.071C161.454 535.532 179.168 544.517 179.168 544.517C179.168 544.517 186.584 536.893 179.776 524.506C172.968 512.118 163.869 518.382 163.713 522.29Z" fill="url(#paint7_linear_147_11882)"/>
<path d="M139.361 511.892C139.361 511.892 145.328 511.613 145.593 517.371C145.857 523.128 132.739 539.109 132.739 539.109C132.739 539.109 123.266 535.288 125.292 520.912C127.317 506.536 137.865 508.351 139.361 511.892Z" fill="url(#paint8_linear_147_11882)"/>
<path opacity="0.2" d="M139.361 511.892C139.361 511.892 145.328 511.613 145.593 517.371C145.857 523.128 132.739 539.109 132.739 539.109C132.739 539.109 123.266 535.288 125.292 520.912C127.317 506.536 137.865 508.351 139.361 511.892Z" fill="url(#paint9_linear_147_11882)"/>
<path d="M134.298 484.325C134.298 484.325 138.286 483.837 137.959 481.133C137.632 478.428 122.488 471.432 113.561 482.72C113.561 482.72 119.278 493.729 127.583 493.869C135.887 494.008 134.298 484.325 134.298 484.325Z" fill="url(#paint10_linear_147_11882)"/>
<path opacity="0.2" d="M134.298 484.325C134.298 484.325 138.286 483.837 137.959 481.133C137.632 478.428 122.488 471.432 113.561 482.72C113.561 482.72 119.278 493.729 127.583 493.869C135.887 494.008 134.298 484.325 134.298 484.325Z" fill="url(#paint11_linear_147_11882)"/>
<path d="M141.778 477.731C141.778 477.731 138.179 479.685 137.104 477.19C136.029 474.695 145.658 459.743 158.574 464.087C158.574 464.087 158.916 476.824 151.968 481.848C145.019 486.873 141.778 477.731 141.778 477.731Z" fill="url(#paint12_linear_147_11882)"/>
<path opacity="0.2" d="M141.778 477.731C141.778 477.731 138.179 479.685 137.104 477.19C136.029 474.695 145.658 459.743 158.574 464.087C158.574 464.087 158.916 476.824 151.968 481.848C145.019 486.873 141.778 477.731 141.778 477.731Z" fill="url(#paint13_linear_147_11882)"/>
<path d="M122.878 520.093C122.878 520.093 125.62 517.615 122.66 516.394C119.7 515.173 105.148 515.539 105.008 531.66C105.008 531.66 121.943 534.818 124.031 528.676C126.119 522.535 122.878 520.093 122.878 520.093Z" fill="url(#paint14_linear_147_11882)"/>
<path opacity="0.2" d="M122.878 520.093C122.878 520.093 125.62 517.615 122.66 516.394C119.7 515.173 105.148 515.539 105.008 531.66C105.008 531.66 121.943 534.818 124.031 528.676C126.119 522.535 122.878 520.093 122.878 520.093Z" fill="url(#paint15_linear_147_11882)"/>
<path d="M157.357 483.923C157.357 483.923 154.599 481.429 157.575 480.225C160.551 479.021 175.072 479.352 175.227 495.491C175.227 495.491 158.292 498.631 156.189 492.49C154.085 486.349 157.357 483.923 157.357 483.923Z" fill="url(#paint16_linear_147_11882)"/>
<path opacity="0.2" d="M157.357 483.923C157.357 483.923 154.599 481.429 157.575 480.225C160.551 479.021 175.072 479.352 175.227 495.491C175.227 495.491 158.292 498.631 156.189 492.49C154.085 486.349 157.357 483.923 157.357 483.923Z" fill="url(#paint17_linear_147_11882)"/>
<path d="M148.46 496.905C148.46 496.905 148.21 493.887 150.392 495.073C152.573 496.26 160.145 505.419 152.292 514.108C152.292 514.108 141.714 505.384 143.614 500.761C145.515 496.137 148.46 496.905 148.46 496.905Z" fill="url(#paint18_linear_147_11882)"/>
<path opacity="0.2" d="M148.46 496.905C148.46 496.905 148.21 493.887 150.392 495.073C152.573 496.26 160.145 505.419 152.292 514.108C152.292 514.108 141.714 505.384 143.614 500.761C145.515 496.137 148.46 496.905 148.46 496.905Z" fill="url(#paint19_linear_147_11882)"/>
<path d="M120.415 501.215C120.415 501.215 122.067 498.807 119.652 498.511C117.237 498.214 106.487 501.424 109.057 513.463C109.057 513.463 122.176 512.363 122.737 507.356C123.297 502.349 120.415 501.215 120.415 501.215Z" fill="url(#paint20_linear_147_11882)"/>
<path opacity="0.2" d="M120.415 501.215C120.415 501.215 122.067 498.807 119.652 498.511C117.237 498.214 106.487 501.424 109.057 513.463C109.057 513.463 122.176 512.363 122.737 507.356C123.297 502.349 120.415 501.215 120.415 501.215Z" fill="url(#paint21_linear_147_11882)"/>
<path d="M164.773 613.852H119.731L114.87 558.633H169.618L164.773 613.852Z" fill="url(#paint22_linear_147_11882)"/>
<path opacity="0.5" d="M164.773 613.852H119.731L114.87 558.633H169.618L164.773 613.852Z" fill="url(#paint23_linear_147_11882)"/>
<path d="M172.033 552.543H112.471V564.721H172.033V552.543Z" fill="url(#paint24_linear_147_11882)"/>
<path opacity="0.2" d="M172.033 552.543H112.471V564.721H172.033V552.543Z" fill="url(#paint25_linear_147_11882)"/>
<path d="M529.753 613.849L529.846 613.203L532.479 578.693H543.713L535.689 613.849" fill="#263238"/>
<path d="M633.701 613.849L633.607 613.203L630.959 578.693H619.741L627.765 613.849" fill="#263238"/>
<path d="M514.951 613.849L515.045 613.203L520.155 578.693H531.373L520.887 613.849" fill="#263238"/>
<path d="M648.504 613.849L648.395 613.203L643.301 578.693H632.083L642.568 613.849" fill="#263238"/>
<g opacity="0.2">
<path d="M514.952 613.849L515.046 613.203L520.156 578.693H531.373L520.888 613.849" fill="white"/>
<path d="M648.503 613.849L648.394 613.203L643.3 578.693H632.082L642.567 613.849" fill="white"/>
</g>
<path d="M649.344 372.123H514.126C510.701 372.123 507.925 375.232 507.925 379.067V579.444C507.925 583.279 510.701 586.388 514.126 586.388H649.344C652.769 586.388 655.545 583.279 655.545 579.444V379.067C655.545 375.232 652.769 372.123 649.344 372.123Z" fill="#407BFF"/>
<path opacity="0.4" d="M649.344 372.123H514.126C510.701 372.123 507.925 375.232 507.925 379.067V579.444C507.925 583.279 510.701 586.388 514.126 586.388H649.344C652.769 586.388 655.545 583.279 655.545 579.444V379.067C655.545 375.232 652.769 372.123 649.344 372.123Z" fill="white"/>
<path opacity="0.5" d="M649.516 418.846H513.938V496.188H649.516V418.846Z" fill="url(#paint26_linear_147_11882)"/>
<path opacity="0.5" d="M649.516 501.334H513.938V578.676H649.516V501.334Z" fill="url(#paint27_linear_147_11882)"/>
<path opacity="0.5" d="M649.516 379.816H513.938V413.681H649.516V379.816Z" fill="url(#paint28_linear_147_11882)"/>
<path opacity="0.5" d="M592.82 385.452H570.634C569.969 385.448 569.318 385.237 568.754 384.843C568.19 384.448 567.735 383.886 567.44 383.219L565.96 379.816H597.494L595.936 383.219C595.651 383.877 595.209 384.434 594.659 384.828C594.109 385.222 593.473 385.438 592.82 385.452Z" fill="black"/>
<path opacity="0.5" d="M592.82 424.464H570.634C569.968 424.464 569.316 424.255 568.751 423.86C568.186 423.465 567.732 422.9 567.44 422.23L565.96 418.846H597.494L595.936 422.23C595.654 422.891 595.213 423.45 594.662 423.845C594.112 424.239 593.474 424.454 592.82 424.464Z" fill="black"/>
<path opacity="0.5" d="M592.82 506.969H570.634C569.968 506.97 569.316 506.76 568.751 506.366C568.186 505.971 567.732 505.406 567.44 504.736L565.96 501.334H597.494L595.936 504.736C595.654 505.397 595.213 505.956 594.662 506.35C594.112 506.745 593.474 506.959 592.82 506.969Z" fill="black"/>
<path d="M621.16 348.482L632.876 372.123H618.293L621.16 348.482Z" fill="#407BFF"/>
<path opacity="0.2" d="M621.16 348.482L632.876 372.123H618.293L621.16 348.482Z" fill="black"/>
<path d="M625.071 372.123H597.494L606.125 332.117H633.702L625.071 372.123Z" fill="#407BFF"/>
<path opacity="0.5" d="M601.294 368.948L608.554 335.293H629.899L622.639 368.948H601.294Z" fill="url(#paint29_linear_147_11882)"/>
<path d="M544.382 353.908L537.542 372.123H555.833L544.382 353.908Z" fill="#407BFF"/>
<path d="M581.728 372.122H546.704L538.478 343.701H573.517L581.728 372.122Z" fill="#407BFF"/>
<path opacity="0.2" d="M581.728 372.122H546.704L538.478 343.701H573.517L581.728 372.122Z" fill="white"/>
<path opacity="0.5" d="M548.635 368.024L542.777 347.803H571.585L577.427 368.024H548.635Z" fill="url(#paint30_linear_147_11882)"/>
<path d="M425.692 158.4H201.855C192.906 158.4 185.651 166.524 185.651 176.545V621.492C185.651 631.513 192.906 639.637 201.855 639.637H425.692C434.641 639.637 441.896 631.513 441.896 621.492V176.545C441.896 166.524 434.641 158.4 425.692 158.4Z" fill="#263238"/>
<path d="M433.248 175.69V621.422C433.248 622.352 433.083 623.272 432.761 624.129C432.439 624.986 431.967 625.763 431.374 626.413C430.78 627.063 430.076 627.574 429.304 627.915C428.532 628.256 427.706 628.421 426.876 628.4H199.985C199.229 628.412 198.48 628.254 197.781 627.933C197.082 627.613 196.448 627.138 195.917 626.537C195.386 625.936 194.969 625.221 194.691 624.435C194.413 623.649 194.279 622.808 194.298 621.963V175.114C194.269 174.367 194.372 173.621 194.602 172.92C194.832 172.218 195.184 171.574 195.637 171.026C196.091 170.477 196.637 170.035 197.244 169.725C197.851 169.414 198.507 169.241 199.174 169.217H255.901C256.692 169.235 257.46 169.514 258.109 170.021C258.757 170.527 259.258 171.236 259.547 172.061L261.899 178.551C262.187 179.374 262.688 180.083 263.337 180.587C263.987 181.09 264.755 181.365 265.545 181.377H362.141C362.928 181.373 363.696 181.104 364.346 180.607C364.996 180.109 365.498 179.405 365.787 178.586L368.139 172.078C368.426 171.251 368.925 170.537 369.574 170.028C370.223 169.518 370.993 169.236 371.785 169.217H427.702C429.199 169.267 430.619 169.973 431.656 171.184C432.694 172.394 433.265 174.012 433.248 175.69Z" fill="#407BFF"/>
<path opacity="0.3" d="M433.248 175.69V621.422C433.248 622.352 433.083 623.272 432.761 624.129C432.439 624.986 431.967 625.763 431.374 626.413C430.78 627.063 430.076 627.574 429.304 627.915C428.532 628.256 427.706 628.421 426.876 628.4H199.985C199.229 628.412 198.48 628.254 197.781 627.933C197.082 627.613 196.448 627.138 195.917 626.537C195.386 625.936 194.969 625.221 194.691 624.435C194.413 623.649 194.279 622.808 194.298 621.963V175.114C194.269 174.367 194.372 173.621 194.602 172.92C194.832 172.218 195.184 171.574 195.637 171.026C196.091 170.477 196.637 170.035 197.244 169.725C197.851 169.414 198.507 169.241 199.174 169.217H255.901C256.692 169.235 257.46 169.514 258.109 170.021C258.757 170.527 259.258 171.236 259.547 172.061L261.899 178.551C262.187 179.374 262.688 180.083 263.337 180.587C263.987 181.09 264.755 181.365 265.545 181.377H362.141C362.928 181.373 363.696 181.104 364.346 180.607C364.996 180.109 365.498 179.405 365.787 178.586L368.139 172.078C368.426 171.251 368.925 170.537 369.574 170.028C370.223 169.518 370.993 169.236 371.785 169.217H427.702C429.199 169.267 430.619 169.973 431.656 171.184C432.694 172.394 433.265 174.012 433.248 175.69Z" fill="url(#paint31_linear_147_11882)"/>
<path opacity="0.6" d="M433.248 199.242H194.298V595.652H433.248V199.242Z" fill="white"/>
<path opacity="0.6" d="M220.643 188.582H223.588V184.168H220.643V188.582Z" fill="white"/>
<path opacity="0.6" d="M215.83 188.582H218.774V182.702H215.83V188.582Z" fill="white"/>
<path opacity="0.6" d="M211.013 188.582H213.958V181.237H211.013V188.582Z" fill="white"/>
<path opacity="0.6" d="M206.201 188.582H209.146V179.771H206.201V188.582Z" fill="white"/>
<path opacity="0.6" d="M406.202 182.562H404.457V186.977H406.202V182.562Z" fill="white"/>
<path opacity="0.6" d="M407.403 188.582H421.347V180.958H407.403V188.582Z" fill="white"/>
<path opacity="0.6" d="M313.734 169.845C313.734 170.573 313.541 171.285 313.18 171.891C312.819 172.496 312.305 172.968 311.705 173.246C311.104 173.525 310.443 173.598 309.805 173.456C309.168 173.314 308.582 172.963 308.122 172.448C307.662 171.934 307.349 171.278 307.222 170.564C307.096 169.849 307.161 169.109 307.409 168.437C307.658 167.764 308.08 167.189 308.62 166.784C309.161 166.38 309.796 166.164 310.447 166.164C310.879 166.162 311.307 166.255 311.707 166.44C312.107 166.624 312.47 166.895 312.776 167.237C313.081 167.579 313.323 167.986 313.488 168.434C313.652 168.882 313.736 169.361 313.734 169.845Z" fill="white"/>
<path opacity="0.6" d="M320.373 169.846C320.373 170.311 320.249 170.767 320.018 171.154C319.787 171.541 319.459 171.843 319.074 172.022C318.69 172.2 318.267 172.247 317.859 172.156C317.451 172.065 317.076 171.84 316.782 171.511C316.488 171.182 316.288 170.762 316.206 170.305C316.125 169.848 316.167 169.375 316.326 168.944C316.485 168.514 316.755 168.146 317.101 167.887C317.447 167.628 317.853 167.49 318.269 167.49C318.827 167.49 319.362 167.738 319.757 168.18C320.151 168.622 320.373 169.221 320.373 169.846Z" fill="white"/>
<path d="M433.248 199.242H194.298V245.005H433.248V199.242Z" fill="url(#paint32_linear_147_11882)"/>
<path d="M423.107 225.868V222.378H420.334C420.155 221.492 419.839 220.647 419.399 219.883L421.362 217.685L419.103 215.155L417.14 217.354C416.456 216.869 415.702 216.521 414.912 216.324V213.219H411.796V216.342C411.007 216.542 410.253 216.89 409.568 217.371L407.605 215.173L405.392 217.668L407.356 219.866C406.915 220.63 406.599 221.474 406.421 222.361H403.647V225.85H406.421C406.602 226.73 406.918 227.569 407.356 228.328L405.392 230.526L407.605 233.021L409.568 230.823C410.256 231.302 411.008 231.656 411.796 231.869V234.958H414.912V231.869C415.7 231.659 416.453 231.305 417.14 230.823L419.103 233.021L421.315 230.526L419.352 228.328C419.789 227.569 420.106 226.73 420.287 225.85L423.107 225.868ZM413.385 227.351C412.808 227.351 412.244 227.159 411.765 226.8C411.285 226.44 410.912 225.93 410.692 225.333C410.472 224.735 410.415 224.079 410.529 223.445C410.642 222.812 410.921 222.231 411.33 221.775C411.739 221.319 412.26 221.01 412.826 220.886C413.392 220.762 413.979 220.829 414.511 221.079C415.043 221.329 415.497 221.749 415.815 222.288C416.133 222.827 416.302 223.46 416.298 224.106C416.298 224.533 416.223 224.957 416.076 225.351C415.93 225.746 415.715 226.105 415.444 226.406C415.173 226.708 414.852 226.947 414.499 227.109C414.145 227.271 413.767 227.353 413.385 227.351Z" fill="white"/>
<path d="M214.959 214.492L204.442 225.676H207.699V233.701H222.219V225.676H225.46L214.959 214.492Z" fill="white"/>
<path opacity="0.4" d="M358.167 321.841C358.177 331.679 355.58 341.298 350.706 349.482C345.832 357.666 338.899 364.048 330.785 367.819C322.672 371.59 313.742 372.581 305.125 370.667C296.508 368.753 288.592 364.019 282.378 357.066C276.164 350.112 271.931 341.251 270.216 331.603C268.501 321.955 269.38 311.954 272.741 302.865C276.103 293.777 281.797 286.009 289.102 280.545C296.407 275.081 304.995 272.167 313.78 272.17C319.609 272.159 325.383 273.435 330.771 275.927C336.159 278.419 341.055 282.076 345.178 286.691C349.302 291.305 352.572 296.785 354.8 302.817C357.029 308.848 358.173 315.313 358.167 321.841Z" fill="black"/>
<path opacity="0.8" d="M347.339 354.398C343.171 359.786 338.017 364.107 332.227 367.068C326.437 370.03 320.146 371.562 313.78 371.562C307.414 371.562 301.123 370.03 295.333 367.068C289.543 364.107 284.389 359.786 280.221 354.398C281.828 347.942 284.893 342.059 289.12 337.313C293.347 332.568 298.593 329.121 304.354 327.304C301.274 325.034 298.929 321.713 297.668 317.833C296.407 313.953 296.297 309.721 297.354 305.765C298.412 301.809 300.581 298.341 303.538 295.876C306.496 293.41 310.085 292.078 313.772 292.078C317.46 292.078 321.049 293.41 324.006 295.876C326.964 298.341 329.133 301.809 330.19 305.765C331.248 309.721 331.138 313.953 329.877 317.833C328.616 321.713 326.271 325.034 323.19 327.304C328.952 329.123 334.2 332.57 338.429 337.315C342.658 342.06 345.726 347.943 347.339 354.398Z" fill="white"/>
<g opacity="0.5">
<path d="M230.429 401.069V401.976H225.677V394.648H230.351V395.556H226.674V397.789H229.961V398.679H226.674V401.051L230.429 401.069Z" fill="black"/>
<path d="M231.302 398.66H233.826V399.532H231.302V398.66Z" fill="black"/>
<path d="M243.423 398.784V401.977H242.535V398.906C242.535 397.807 242.067 397.284 241.257 397.284C241.04 397.26 240.822 397.292 240.618 397.377C240.413 397.462 240.229 397.598 240.079 397.774C239.929 397.951 239.817 398.163 239.751 398.396C239.685 398.628 239.667 398.875 239.699 399.116V401.977H238.811V398.906C238.811 397.807 238.344 397.284 237.518 397.284C237.301 397.26 237.082 397.292 236.878 397.377C236.674 397.462 236.49 397.598 236.34 397.774C236.19 397.951 236.077 398.163 236.012 398.396C235.946 398.628 235.928 398.875 235.96 399.116V401.977H235.259V396.429H236.116V397.266C236.309 396.97 236.566 396.733 236.863 396.578C237.16 396.422 237.487 396.353 237.814 396.377C238.159 396.348 238.505 396.43 238.811 396.612C239.117 396.794 239.371 397.069 239.543 397.406C239.759 397.072 240.046 396.803 240.378 396.623C240.71 396.443 241.076 396.359 241.444 396.377C241.723 396.361 242.001 396.414 242.259 396.533C242.517 396.651 242.748 396.831 242.937 397.061C243.126 397.291 243.268 397.564 243.351 397.862C243.435 398.16 243.46 398.475 243.423 398.784Z" fill="black"/>
<path d="M249.016 398.626V401.976H248.159V401.278C247.977 401.544 247.74 401.755 247.469 401.895C247.197 402.035 246.9 402.099 246.601 402.081C245.479 402.081 244.763 401.4 244.763 400.441C244.763 399.481 245.277 398.818 246.757 398.818H248.175V398.626C248.175 397.771 247.738 397.283 246.85 397.283C246.286 397.28 245.738 397.489 245.292 397.876L244.918 397.126C245.506 396.634 246.226 396.382 246.959 396.41C248.237 396.375 249.016 397.108 249.016 398.626ZM248.112 400.284V399.533H246.726C245.838 399.533 245.588 399.935 245.588 400.406C245.588 400.877 245.994 401.296 246.679 401.296C246.983 401.317 247.284 401.23 247.542 401.049C247.799 400.867 247.999 400.599 248.112 400.284Z" fill="black"/>
<path d="M250.511 394.718C250.511 394.629 250.527 394.542 250.557 394.46C250.588 394.379 250.633 394.305 250.69 394.243C250.746 394.181 250.813 394.133 250.887 394.1C250.961 394.068 251.039 394.053 251.118 394.055C251.235 394.058 251.348 394.1 251.443 394.175C251.538 394.25 251.612 394.355 251.654 394.476C251.697 394.597 251.706 394.73 251.682 394.858C251.657 394.985 251.599 395.102 251.516 395.193C251.433 395.284 251.327 395.345 251.213 395.369C251.098 395.393 250.98 395.379 250.873 395.329C250.766 395.278 250.674 395.193 250.61 395.084C250.545 394.976 250.511 394.848 250.511 394.718ZM250.682 396.463H251.57V402.011H250.682V396.463Z" fill="black"/>
<path d="M253.284 394.301H254.172V402.065H253.284V394.301Z" fill="black"/>
</g>
<g opacity="0.8">
<path d="M391.135 438.248H236.411C233.303 438.248 230.323 436.866 228.126 434.405C225.929 431.945 224.694 428.608 224.694 425.128C224.694 421.648 225.929 418.311 228.126 415.851C230.323 413.39 233.303 412.008 236.411 412.008H391.135C394.243 412.008 397.223 413.39 399.42 415.851C401.617 418.311 402.852 421.648 402.852 425.128C402.852 428.608 401.617 431.945 399.42 434.405C397.223 436.866 394.243 438.248 391.135 438.248Z" fill="white"/>
</g>
<g opacity="0.5">
<path d="M230.958 461.766C230.958 463.354 229.929 464.313 228.231 464.313H226.673V466.529H225.738V459.201H228.293C229.929 459.201 230.958 460.161 230.958 461.766ZM230.023 461.766C230.023 460.719 229.4 460.108 228.2 460.108H226.642V463.406H228.2C229.4 463.406 230.023 462.795 230.023 461.766Z" fill="black"/>
<path d="M236.083 463.179V466.529H235.258V465.831C235.077 466.097 234.84 466.31 234.568 466.45C234.297 466.59 233.998 466.653 233.7 466.633C232.578 466.633 231.861 465.953 231.861 464.993C231.861 464.034 232.375 463.371 233.856 463.371H235.258V463.179C235.258 462.324 234.822 461.835 233.933 461.835C233.37 461.833 232.821 462.042 232.375 462.429L232.002 461.678C232.595 461.187 233.32 460.935 234.058 460.963C235.258 460.928 236.083 461.661 236.083 463.179ZM235.18 464.836V464.086H233.793C232.905 464.086 232.656 464.487 232.656 464.958C232.656 465.429 233.077 465.848 233.746 465.848C234.063 465.892 234.384 465.816 234.657 465.633C234.931 465.449 235.142 465.169 235.258 464.836H235.18Z" fill="black"/>
<path d="M237.127 465.935L237.501 465.15C238.014 465.529 238.616 465.729 239.23 465.726C240.056 465.726 240.414 465.447 240.414 464.976C240.414 463.72 237.298 464.801 237.298 462.586C237.298 461.609 238.093 460.928 239.355 460.928C239.986 460.917 240.61 461.092 241.162 461.434L240.773 462.219C240.347 461.924 239.855 461.773 239.355 461.783C238.56 461.783 238.186 462.115 238.186 462.551C238.186 463.859 241.302 462.795 241.302 464.941C241.302 465.953 240.477 466.598 239.168 466.598C238.443 466.617 237.73 466.386 237.127 465.935Z" fill="black"/>
<path d="M241.802 465.935L242.176 465.15C242.696 465.527 243.302 465.727 243.921 465.726C244.746 465.726 245.089 465.447 245.089 464.976C245.089 463.72 241.973 464.801 241.973 462.586C241.973 461.609 242.768 460.928 244.045 460.928C244.677 460.919 245.299 461.093 245.853 461.434L245.463 462.219C245.031 461.926 244.535 461.775 244.03 461.783C243.251 461.783 242.861 462.114 242.861 462.551C242.861 463.859 245.977 462.795 245.977 464.941C245.977 465.953 245.151 466.598 243.827 466.598C243.108 466.611 242.402 466.38 241.802 465.935Z" fill="black"/>
<path d="M254.515 460.98L252.661 466.529H251.804L250.371 462.341L248.922 466.546H248.065L246.164 460.98H247.005L248.454 465.395L250.012 460.98H250.838L252.396 465.412L253.861 460.98H254.515Z" fill="black"/>
<path d="M254.826 463.753C254.819 463.183 254.965 462.623 255.244 462.145C255.522 461.667 255.922 461.292 256.391 461.069C256.86 460.846 257.378 460.784 257.878 460.891C258.379 460.998 258.84 461.269 259.203 461.671C259.565 462.072 259.813 462.585 259.915 463.144C260.017 463.703 259.968 464.284 259.774 464.812C259.58 465.34 259.251 465.792 258.828 466.11C258.404 466.427 257.906 466.597 257.396 466.597C257.057 466.614 256.719 466.553 256.402 466.416C256.085 466.28 255.797 466.072 255.556 465.804C255.314 465.537 255.125 465.217 254.999 464.864C254.874 464.511 254.814 464.133 254.826 463.753ZM259.063 463.753C259.063 463.508 259.02 463.266 258.936 463.039C258.853 462.813 258.73 462.607 258.575 462.433C258.42 462.26 258.236 462.123 258.034 462.029C257.832 461.935 257.615 461.887 257.396 461.887C257.177 461.887 256.961 461.935 256.758 462.029C256.556 462.123 256.372 462.26 256.217 462.433C256.063 462.607 255.94 462.813 255.856 463.039C255.772 463.266 255.729 463.508 255.729 463.753C255.729 463.999 255.772 464.241 255.856 464.468C255.94 464.694 256.063 464.9 256.217 465.073C256.372 465.247 256.556 465.384 256.758 465.478C256.961 465.572 257.177 465.62 257.396 465.62C257.615 465.62 257.832 465.572 258.034 465.478C258.236 465.384 258.42 465.247 258.575 465.073C258.73 464.9 258.853 464.694 258.936 464.468C259.02 464.241 259.063 463.999 259.063 463.753Z" fill="black"/>
<path d="M263.878 460.929V461.906H263.676C263.46 461.905 263.247 461.954 263.049 462.051C262.851 462.147 262.674 462.288 262.527 462.465C262.381 462.642 262.269 462.852 262.198 463.08C262.128 463.308 262.1 463.55 262.118 463.79V466.547H261.214V460.999H262.071V461.923C262.259 461.585 262.528 461.312 262.847 461.136C263.167 460.96 263.524 460.889 263.878 460.929Z" fill="black"/>
<path d="M269.611 458.852V466.615H268.754V465.743C268.548 466.05 268.279 466.297 267.97 466.461C267.66 466.625 267.32 466.702 266.977 466.685C266.34 466.629 265.745 466.306 265.312 465.781C264.878 465.255 264.637 464.566 264.637 463.85C264.637 463.134 264.878 462.445 265.312 461.92C265.745 461.394 266.34 461.071 266.977 461.015C267.308 461.001 267.637 461.074 267.937 461.228C268.238 461.383 268.501 461.615 268.707 461.905V458.852H269.611ZM268.722 463.841C268.707 463.476 268.597 463.124 268.404 462.829C268.212 462.534 267.947 462.308 267.641 462.18C267.336 462.052 267.003 462.027 266.685 462.109C266.367 462.19 266.077 462.375 265.852 462.639C265.626 462.903 265.475 463.236 265.417 463.595C265.359 463.955 265.396 464.326 265.524 464.662C265.652 464.998 265.866 465.284 266.138 465.486C266.41 465.687 266.729 465.795 267.055 465.795C267.293 465.818 267.533 465.779 267.755 465.682C267.977 465.585 268.177 465.432 268.338 465.235C268.499 465.037 268.617 464.801 268.684 464.544C268.751 464.288 268.764 464.017 268.722 463.754V463.841Z" fill="black"/>
</g>
<g opacity="0.8">
<path d="M391.135 502.801H236.411C233.303 502.801 230.323 501.418 228.126 498.958C225.929 496.497 224.694 493.16 224.694 489.681C224.694 486.201 225.929 482.864 228.126 480.403C230.323 477.943 233.303 476.561 236.411 476.561H391.135C394.243 476.561 397.223 477.943 399.42 480.403C401.617 482.864 402.852 486.201 402.852 489.681C402.852 493.16 401.617 496.497 399.42 498.958C397.223 501.418 394.243 502.801 391.135 502.801Z" fill="white"/>
</g>
<path d="M352.185 556.887H275.36C273.821 556.887 272.298 556.547 270.876 555.888C269.455 555.229 268.163 554.262 267.075 553.044C265.987 551.826 265.124 550.379 264.535 548.787C263.947 547.196 263.644 545.489 263.644 543.767C263.644 542.044 263.947 540.337 264.535 538.746C265.124 537.154 265.987 535.708 267.075 534.489C268.163 533.271 269.455 532.305 270.876 531.645C272.298 530.986 273.821 530.646 275.36 530.646H352.185C355.292 530.646 358.272 532.029 360.469 534.489C362.666 536.95 363.901 540.287 363.901 543.767C363.901 547.246 362.666 550.583 360.469 553.044C358.272 555.504 355.292 556.887 352.185 556.887Z" fill="url(#paint33_linear_147_11882)"/>
<path d="M299.778 543.025C299.742 542.72 299.595 542.483 299.338 542.315C299.081 542.146 298.766 542.062 298.393 542.062C298.12 542.062 297.882 542.106 297.677 542.194C297.474 542.283 297.316 542.404 297.201 542.559C297.089 542.713 297.033 542.889 297.033 543.085C297.033 543.25 297.072 543.391 297.15 543.51C297.23 543.626 297.333 543.723 297.457 543.802C297.582 543.878 297.712 543.941 297.848 543.991C297.985 544.039 298.11 544.079 298.225 544.109L298.851 544.277C299.011 544.319 299.19 544.378 299.386 544.452C299.585 544.526 299.775 544.627 299.955 544.756C300.138 544.882 300.288 545.045 300.407 545.243C300.525 545.442 300.584 545.686 300.584 545.975C300.584 546.308 300.497 546.609 300.323 546.878C300.15 547.147 299.897 547.36 299.564 547.519C299.233 547.678 298.831 547.757 298.357 547.757C297.916 547.757 297.533 547.686 297.21 547.543C296.889 547.401 296.636 547.202 296.452 546.947C296.269 546.692 296.166 546.396 296.142 546.059H296.912C296.932 546.292 297.011 546.485 297.147 546.637C297.286 546.788 297.46 546.9 297.671 546.974C297.884 547.046 298.112 547.083 298.357 547.083C298.642 547.083 298.898 547.036 299.125 546.944C299.351 546.85 299.531 546.719 299.663 546.553C299.796 546.384 299.862 546.188 299.862 545.963C299.862 545.758 299.805 545.592 299.69 545.463C299.576 545.335 299.426 545.23 299.239 545.15C299.052 545.07 298.851 545 298.634 544.939L297.875 544.723C297.394 544.584 297.013 544.387 296.732 544.13C296.451 543.873 296.31 543.537 296.31 543.121C296.31 542.776 296.404 542.475 296.59 542.218C296.779 541.96 297.032 541.759 297.349 541.616C297.668 541.472 298.024 541.4 298.417 541.4C298.815 541.4 299.168 541.471 299.477 541.613C299.786 541.754 300.031 541.947 300.211 542.191C300.394 542.436 300.49 542.714 300.5 543.025H299.778ZM301.715 547.648V543.025H302.426V547.648H301.715ZM302.077 542.255C301.938 542.255 301.819 542.207 301.718 542.113C301.62 542.019 301.571 541.905 301.571 541.773C301.571 541.641 301.62 541.527 301.718 541.433C301.819 541.339 301.938 541.291 302.077 541.291C302.215 541.291 302.333 541.339 302.432 541.433C302.532 541.527 302.582 541.641 302.582 541.773C302.582 541.905 302.532 542.019 302.432 542.113C302.333 542.207 302.215 542.255 302.077 542.255ZM305.593 549.478C305.25 549.478 304.955 549.434 304.708 549.346C304.461 549.26 304.256 549.145 304.091 549.003C303.929 548.862 303.799 548.712 303.703 548.551L304.269 548.154C304.333 548.238 304.414 548.335 304.512 548.443C304.611 548.553 304.745 548.649 304.916 548.729C305.088 548.811 305.314 548.852 305.593 548.852C305.966 548.852 306.274 548.762 306.517 548.582C306.76 548.401 306.881 548.118 306.881 547.733V546.794H306.821C306.769 546.878 306.695 546.982 306.598 547.107C306.504 547.229 306.368 547.338 306.189 547.435C306.012 547.529 305.774 547.576 305.473 547.576C305.099 547.576 304.764 547.488 304.467 547.311C304.172 547.135 303.939 546.878 303.766 546.541C303.595 546.204 303.51 545.794 303.51 545.313C303.51 544.839 303.593 544.427 303.76 544.076C303.927 543.722 304.158 543.45 304.455 543.257C304.752 543.062 305.095 542.965 305.485 542.965C305.786 542.965 306.024 543.015 306.201 543.115C306.38 543.214 306.516 543.326 306.61 543.453C306.707 543.577 306.781 543.679 306.833 543.76H306.905V543.025H307.592V547.781C307.592 548.178 307.501 548.501 307.321 548.75C307.142 549.001 306.901 549.185 306.598 549.301C306.297 549.419 305.962 549.478 305.593 549.478ZM305.569 546.938C305.854 546.938 306.095 546.873 306.291 546.742C306.488 546.612 306.637 546.424 306.74 546.18C306.842 545.935 306.893 545.642 306.893 545.301C306.893 544.968 306.843 544.674 306.743 544.419C306.643 544.164 306.494 543.964 306.297 543.82C306.101 543.675 305.858 543.603 305.569 543.603C305.268 543.603 305.017 543.679 304.816 543.832C304.618 543.984 304.468 544.189 304.368 544.446C304.27 544.703 304.22 544.988 304.22 545.301C304.22 545.622 304.271 545.906 304.371 546.152C304.473 546.397 304.624 546.59 304.822 546.73C305.023 546.869 305.272 546.938 305.569 546.938ZM309.602 544.867V547.648H308.892V543.025H309.578V543.748H309.638C309.747 543.513 309.911 543.324 310.132 543.182C310.353 543.037 310.638 542.965 310.987 542.965C311.3 542.965 311.574 543.029 311.809 543.158C312.043 543.284 312.226 543.477 312.356 543.735C312.487 543.992 312.552 544.317 312.552 544.711V547.648H311.842V544.759C311.842 544.396 311.747 544.113 311.559 543.91C311.37 543.705 311.111 543.603 310.782 543.603C310.555 543.603 310.353 543.652 310.174 543.751C309.998 543.849 309.858 543.992 309.756 544.181C309.653 544.37 309.602 544.598 309.602 544.867ZM316.234 547.648V543.025H316.944V547.648H316.234ZM316.595 542.255C316.457 542.255 316.337 542.207 316.237 542.113C316.139 542.019 316.09 541.905 316.09 541.773C316.09 541.641 316.139 541.527 316.237 541.433C316.337 541.339 316.457 541.291 316.595 541.291C316.734 541.291 316.852 541.339 316.95 541.433C317.051 541.527 317.101 541.641 317.101 541.773C317.101 541.905 317.051 542.019 316.95 542.113C316.852 542.207 316.734 542.255 316.595 542.255ZM318.956 544.867V547.648H318.245V543.025H318.932V543.748H318.992C319.1 543.513 319.265 543.324 319.486 543.182C319.706 543.037 319.991 542.965 320.34 542.965C320.653 542.965 320.927 543.029 321.162 543.158C321.397 543.284 321.579 543.477 321.71 543.735C321.84 543.992 321.906 544.317 321.906 544.711V547.648H321.195V544.759C321.195 544.396 321.101 544.113 320.912 543.91C320.724 543.705 320.465 543.603 320.136 543.603C319.909 543.603 319.706 543.652 319.528 543.751C319.351 543.849 319.212 543.992 319.109 544.181C319.007 544.37 318.956 544.598 318.956 544.867Z" fill="white"/>
<path d="M592.195 226.67L525.294 225.972C523.768 225.949 522.313 225.249 521.246 224.026C520.18 222.802 519.591 221.156 519.608 219.447L520.247 196.853C520.255 196.007 520.411 195.172 520.708 194.394C521.004 193.617 521.435 192.912 521.974 192.321C522.514 191.73 523.152 191.263 523.853 190.948C524.554 190.633 525.303 190.476 526.058 190.485L593.052 191.2C594.578 191.223 596.034 191.923 597.1 193.146C598.166 194.369 598.755 196.016 598.739 197.725L598.1 220.319C598.092 221.173 597.932 222.016 597.629 222.799C597.327 223.583 596.888 224.291 596.338 224.883C595.788 225.474 595.139 225.937 594.427 226.243C593.716 226.55 592.957 226.695 592.195 226.67Z" fill="url(#paint34_linear_147_11882)"/>
<path d="M557.763 220.964C557.763 220.964 549.287 241.9 530.747 248.303C530.747 248.303 541.03 241.848 540.5 219.848L557.763 220.964Z" fill="url(#paint35_linear_147_11882)"/>
<path d="M536.965 208.315L538.523 209.292L537.806 210.636L536.248 209.554V211.543H534.877V209.554L533.319 210.636L532.618 209.292L534.176 208.315L532.618 207.338L533.319 205.995L534.877 207.077V205.07H536.248V207.077L537.806 205.995L538.523 207.338L536.965 208.315Z" fill="white"/>
<path d="M546.529 208.316L548.087 209.293L547.371 210.636L545.813 209.555V211.544H544.442V209.555L542.884 210.636L542.183 209.363L543.741 208.386L542.183 207.409L542.899 206.065L544.457 207.147V205.141H545.828V207.147L547.386 206.065L548.103 207.409L546.529 208.316Z" fill="white"/>
<path d="M556.112 208.315L557.67 209.292L556.954 210.636L555.396 209.554V211.543H554.009V209.554L552.451 210.636L551.75 209.292L553.308 208.315L551.75 207.338L552.451 205.995L554.009 207.077V205.07H555.396V207.077L556.954 205.995L557.67 207.338L556.112 208.315Z" fill="white"/>
<path d="M565.678 208.315L567.236 209.292L566.519 210.636L564.961 209.554V211.543H563.59V209.554L562.032 210.636L561.331 209.292L562.889 208.315L561.331 207.338L562.032 205.995L563.59 207.077V205.07H564.961V207.077L566.519 205.995L567.236 207.338L565.678 208.315Z" fill="white"/>
<path d="M575.244 208.315L576.802 209.292L576.086 210.636L574.528 209.554V211.543H573.157V209.554L571.599 210.636L570.882 209.292L572.44 208.315L570.882 207.338L571.599 205.995L573.157 207.077V205.07H574.528V207.077L576.086 205.995L576.802 207.338L575.244 208.315Z" fill="white"/>
<path d="M584.825 208.315L586.383 209.292L585.667 210.636L584.109 209.554V211.543H582.691V209.554L581.133 210.636L580.432 209.292L581.99 208.315L580.432 207.338L581.133 205.995L582.691 207.077V205.07H584.077V207.077L585.635 205.995L586.352 207.338L584.825 208.315Z" fill="white"/>
<path d="M486.313 263.447C495.225 265 503.872 295.741 507.627 298.341C511.382 300.941 508.157 269.554 508.157 269.554L515.292 268.489C515.292 268.489 523.737 315.805 511.413 315.456C502.065 315.195 490.847 297.626 488.043 288.675L486.313 263.447Z" fill="#EBB376"/>
<path opacity="0.1" d="M511.413 315.334C505.726 315.177 499.354 308.634 494.618 301.516C491.91 297.562 489.718 293.197 488.105 288.553L487.186 275.642L486.313 263.43C495.225 264.982 503.872 295.724 507.627 298.323C511.382 300.923 508.157 269.536 508.157 269.536L515.292 268.472C515.292 268.472 523.737 315.683 511.413 315.334Z" fill="black"/>
<path opacity="0.2" d="M494.617 301.516C491.91 297.562 489.717 293.197 488.105 288.553L487.186 275.643C487.186 275.643 496.907 286.599 494.617 301.516Z" fill="black"/>
<path d="M453.503 199.872C453.503 199.872 437.627 199.663 438.39 224.106C439.153 248.549 454.422 248.88 449.296 255.946C453.85 258.108 458.746 259.223 463.692 259.223C468.638 259.223 473.534 258.108 478.088 255.946C478.088 255.946 475.268 254.707 476.608 250.224C477.948 245.74 485.301 239.319 485.956 229.863C486.61 220.407 469.924 197.429 453.503 199.872Z" fill="#263238"/>
<path d="M469.191 246.664C469.191 246.664 489.445 242.459 486.064 220.895C483.291 203.221 475.921 197.551 469.191 195.021C466.292 193.927 463.153 193.925 460.253 195.015C457.353 196.105 454.851 198.227 453.128 201.058C453.128 201.058 439.386 196.696 441.77 221.994C444.154 247.292 459.079 258.213 469.191 246.664Z" fill="#263238"/>
<path d="M506.116 608.004L497.11 602.839L500.382 587.765L503.405 573.965L514.747 578.117L510.182 593.941L506.116 608.004Z" fill="#EBB376"/>
<path d="M494.602 600.468C495.132 599.352 507.222 607.203 507.222 607.203C507.222 607.203 511.008 620.235 517.598 626.394C524.188 632.553 517.785 635.205 509.45 630.564L488.822 619.049C482.979 615.717 489.118 612.123 494.602 600.468Z" fill="#263238"/>
<path d="M511.321 613.833C510.011 612.647 508.834 611.288 507.816 609.786C507.808 609.745 507.808 609.704 507.816 609.663C507.808 609.611 507.808 609.558 507.816 609.506C507.808 609.472 507.808 609.436 507.816 609.402C507.828 609.338 507.862 609.282 507.909 609.245C508.018 609.123 510.511 606.453 512.583 606.61C512.888 606.633 513.185 606.729 513.453 606.892C513.722 607.054 513.957 607.28 514.141 607.552C514.338 607.756 514.472 608.024 514.525 608.319C514.579 608.613 514.548 608.919 514.437 609.192C514.063 609.908 512.879 610.134 511.57 610.187C512.595 610.53 513.513 611.189 514.219 612.088C514.338 612.276 514.42 612.489 514.46 612.715C514.5 612.94 514.498 613.173 514.453 613.397C514.281 614.339 513.829 614.636 513.487 614.723C513.09 614.75 512.694 614.684 512.321 614.531C511.948 614.378 511.608 614.14 511.321 613.833ZM509.062 610.187C510.511 612.088 512.458 614.147 513.284 613.92C513.362 613.92 513.58 613.92 513.689 613.24C513.712 613.119 513.712 612.994 513.687 612.874C513.663 612.753 513.616 612.64 513.549 612.542C512.91 611.46 510.604 610.64 509.062 610.187ZM513.206 607.727C512.983 607.546 512.718 607.443 512.443 607.43C511.149 607.583 509.932 608.195 508.969 609.175C511.165 609.419 513.44 609.314 513.752 608.704C513.845 608.512 513.643 608.18 513.502 607.988C513.415 607.886 513.315 607.798 513.206 607.727Z" fill="#407BFF"/>
<path opacity="0.2" d="M510.073 594.257L500.289 588.063L503.343 574.105L514.732 578.188L510.073 594.257Z" fill="black"/>
<path d="M490.224 620.601H479.925L476.981 605.771L474.301 592.18L486.344 590.121L488.401 606.259L490.224 620.601Z" fill="#EBB376"/>
<path d="M476.53 620.149C476.53 618.875 490.552 619.87 490.552 619.87C490.552 619.87 499.136 629.64 507.471 631.838C515.807 634.036 511.148 639.637 501.831 639.637H478.726C472.074 639.637 476.249 633.321 476.53 620.149Z" fill="#263238"/>
<path d="M497.828 623.864C495.815 623.584 493.86 622.917 492.048 621.893L491.924 621.788V621.701C491.893 621.593 491.893 621.477 491.924 621.369C491.924 621.23 493.154 617.583 495.04 616.694C495.323 616.547 495.631 616.471 495.943 616.471C496.255 616.471 496.564 616.547 496.847 616.694C497.486 617.043 497.782 617.479 497.766 618.02C497.766 618.84 496.722 619.66 495.585 620.34C496.635 620.128 497.717 620.261 498.701 620.724C498.881 620.835 499.04 620.984 499.168 621.164C499.297 621.343 499.392 621.55 499.449 621.771C499.564 622.065 499.592 622.392 499.531 622.706C499.469 623.019 499.321 623.303 499.106 623.515C498.73 623.795 498.278 623.919 497.828 623.864ZM493.326 621.631C495.382 622.591 498 623.463 498.592 622.852C498.592 622.852 498.826 622.643 498.685 622.032C498.66 621.916 498.612 621.807 498.544 621.713C498.477 621.62 498.392 621.544 498.296 621.492C497.283 620.829 494.899 621.23 493.326 621.631ZM495.819 617.322C495.625 617.326 495.435 617.374 495.258 617.461C494.163 618.268 493.324 619.44 492.858 620.811C494.931 619.939 496.925 618.718 496.956 618.02C496.956 617.793 496.66 617.601 496.473 617.496C496.27 617.381 496.046 617.321 495.819 617.322Z" fill="#407BFF"/>
<path opacity="0.2" d="M488.432 606.591L477.012 606.068L474.316 592.32L486.36 590.191L488.432 606.591Z" fill="black"/>
<path d="M440.012 349.18L465.298 344.644L488.216 339.41L494.448 381.283C494.448 381.283 526.714 433.623 534.536 469.633C542.357 505.644 513.02 589.179 513.02 589.179L499.543 582.497C499.543 582.497 508.891 502.154 508.673 492.506C508.533 486.225 490.133 457.264 477.264 437.741C476.89 442.643 481.065 491.512 481.065 491.512L490.148 598.635H473.166C414.772 395.572 440.012 349.18 440.012 349.18Z" fill="#263238"/>
<path opacity="0.6" d="M473.165 598.565H490.085L481.002 491.441C481.002 491.441 476.857 442.241 477.2 437.67C479.74 441.526 482.497 445.731 485.286 450.075C496.613 467.714 508.5 487.376 508.656 492.418C508.874 502.084 499.526 582.427 499.526 582.427L513.003 589.109C513.003 589.109 542.34 505.539 534.519 469.546C526.698 433.553 494.432 381.212 494.432 381.212L488.2 339.34L465.281 344.574L439.995 349.11C439.995 349.11 414.771 395.571 473.165 598.565Z" fill="white"/>
<path d="M498.779 575.676L518.674 583.352L514.234 590.994L497.891 584.452L498.779 575.676Z" fill="#407BFF"/>
<path d="M470.733 596.001L492.016 592.738L490.956 601.636L473.382 604.114L470.733 596.001Z" fill="#407BFF"/>
<path opacity="0.2" d="M477.201 437.67C479.74 441.526 482.498 445.731 485.287 450.075C480.831 424.219 475.581 399.043 475.581 399.043C474.915 411.947 475.458 424.893 477.201 437.67Z" fill="black"/>
<path d="M487.763 341.05L441.63 344.627C441.63 344.627 441.007 316.956 437.33 302.563C436.832 300.626 436.286 298.602 435.679 296.439C434.822 293.403 433.84 290.141 432.718 286.581C432.453 285.744 431.784 283.65 430.973 281.225C430.333 279.29 430.205 277.188 430.606 275.173C431.007 273.158 431.919 271.315 433.233 269.867C434.512 268.432 436.135 267.445 437.907 267.023C441.303 266.186 444.653 265.401 446.476 265.087C453.386 263.859 460.359 263.119 467.353 262.871C473.273 262.871 479.817 263.255 483.556 263.552L486.797 263.831C486.797 263.831 488.261 264.197 489.196 273.81C490.037 282.848 489.632 308.181 487.763 341.05Z" fill="url(#paint36_linear_147_11882)"/>
<path d="M465.842 273.916C454.203 271.561 450.932 265.769 450.932 265.769C458.722 258.336 453.175 244.379 453.175 244.379L467.197 248.13C466.767 250.308 466.48 252.518 466.34 254.742C465.795 264.321 469.659 264.635 469.659 264.635C471.793 269.886 465.842 273.916 465.842 273.916Z" fill="#EBB376"/>
<path opacity="0.2" d="M467.09 248.042C466.659 250.22 466.373 252.43 466.233 254.654C459.518 252.508 453.13 244.291 453.13 244.291L467.09 248.042Z" fill="black"/>
<path d="M466.06 203.29C478.29 204.528 481.64 212.257 481.406 226.476C481.11 244.237 476.607 256.433 461.604 251.111C441.225 243.906 445.728 201.248 466.06 203.29Z" fill="#EBB376"/>
<path d="M473.632 224.906C474.45 227.057 475.496 229.09 476.748 230.96C476.343 231.487 475.816 231.88 475.226 232.095C474.635 232.311 474.003 232.34 473.398 232.182L473.632 224.906Z" fill="#D58745"/>
<path d="M466.154 223.042C466.154 224.158 465.484 225.03 464.814 224.996C464.144 224.961 463.661 223.984 463.723 222.85C463.786 221.716 464.393 220.861 465.063 220.896C465.733 220.93 466.216 221.907 466.154 223.042Z" fill="#263238"/>
<path d="M464.768 220.93L467.027 220.127C467.027 220.127 465.843 222.116 464.768 220.93Z" fill="#263238"/>
<path d="M478.693 223.738C478.615 224.855 478.023 225.727 477.354 225.675C476.684 225.622 476.185 224.68 476.263 223.546C476.341 222.412 476.917 221.54 477.603 221.592C478.288 221.644 478.756 222.604 478.693 223.738Z" fill="#263238"/>
<path d="M477.308 221.576L479.567 220.773C479.567 220.773 478.305 222.815 477.308 221.576Z" fill="#263238"/>
<path d="M461.31 215.73C461.165 215.726 461.027 215.664 460.92 215.556C460.817 215.433 460.76 215.271 460.76 215.102C460.76 214.934 460.817 214.771 460.92 214.648C461.733 213.856 462.7 213.286 463.744 212.984C464.787 212.681 465.879 212.654 466.934 212.904C467.007 212.922 467.075 212.956 467.136 213.004C467.197 213.052 467.249 213.113 467.289 213.184C467.328 213.254 467.355 213.333 467.368 213.415C467.381 213.497 467.379 213.581 467.362 213.663C467.346 213.744 467.315 213.821 467.273 213.889C467.23 213.957 467.175 214.015 467.112 214.06C467.049 214.104 466.979 214.135 466.906 214.149C466.832 214.163 466.757 214.161 466.685 214.143C465.821 213.936 464.926 213.952 464.068 214.187C463.21 214.423 462.411 214.873 461.73 215.503C461.679 215.573 461.615 215.629 461.542 215.668C461.469 215.707 461.39 215.728 461.31 215.73Z" fill="#263238"/>
<path d="M480.517 216.131C480.387 216.128 480.262 216.079 480.158 215.992C479.594 215.392 478.914 214.945 478.171 214.685C477.429 214.425 476.643 214.358 475.874 214.491C475.729 214.529 475.577 214.503 475.45 214.418C475.322 214.334 475.228 214.198 475.188 214.038C475.15 213.878 475.169 213.708 475.242 213.564C475.315 213.421 475.436 213.315 475.578 213.27C476.521 213.086 477.49 213.147 478.408 213.45C479.327 213.752 480.171 214.288 480.875 215.015C480.933 215.067 480.98 215.132 481.016 215.205C481.051 215.278 481.073 215.359 481.08 215.441C481.087 215.524 481.08 215.608 481.058 215.687C481.036 215.767 481 215.841 480.953 215.905C480.9 215.977 480.834 216.035 480.758 216.075C480.683 216.114 480.6 216.133 480.517 216.131Z" fill="#263238"/>
<path d="M450.822 225.064C450.822 225.064 457.443 214.369 457.272 205.593C457.272 205.593 482.418 196.87 481.405 224.628C481.405 224.628 485.737 200.394 464.75 197.725C443.764 195.055 441.069 229.548 451.118 240.906C451.118 240.888 446.709 231.729 450.822 225.064Z" fill="#263238"/>
<path d="M452.583 228.134C452.589 227.344 452.457 226.559 452.192 225.827C451.928 225.094 451.537 224.426 451.042 223.862C450.547 223.299 449.958 222.849 449.308 222.541C448.659 222.232 447.961 222.069 447.255 222.062C443.422 222.15 440.914 230.681 450.184 233.734C451.508 234.171 452.396 232.757 452.583 228.134Z" fill="#EBB376"/>
<path d="M472.215 238.568C470.721 238.651 469.244 238.184 468.009 237.239C466.774 236.294 465.849 234.923 465.375 233.334C465.353 233.258 465.345 233.177 465.352 233.097C465.358 233.016 465.378 232.938 465.412 232.867C465.445 232.796 465.491 232.732 465.546 232.681C465.601 232.629 465.665 232.59 465.733 232.567C465.804 232.542 465.878 232.534 465.952 232.542C466.025 232.55 466.096 232.574 466.162 232.613C466.227 232.652 466.284 232.705 466.331 232.769C466.378 232.833 466.413 232.906 466.435 232.985C466.849 234.365 467.666 235.549 468.754 236.347C469.842 237.144 471.138 237.509 472.433 237.382C472.579 237.372 472.723 237.427 472.834 237.535C472.944 237.642 473.013 237.794 473.025 237.958C473.033 238.121 472.984 238.283 472.888 238.406C472.792 238.53 472.657 238.607 472.511 238.621L472.215 238.568Z" fill="#263238"/>
<path d="M481.219 220.755C481.101 220.754 480.987 220.711 480.891 220.633C480.796 220.555 480.726 220.445 480.69 220.319C475.922 202.872 457.662 205.594 457.491 205.629C457.419 205.64 457.347 205.636 457.276 205.616C457.206 205.595 457.141 205.56 457.083 205.511C457.025 205.463 456.976 205.402 456.939 205.332C456.902 205.263 456.878 205.185 456.868 205.105C456.858 205.025 456.862 204.943 456.88 204.865C456.897 204.786 456.929 204.713 456.972 204.648C457.016 204.583 457.07 204.528 457.133 204.487C457.195 204.446 457.264 204.419 457.335 204.407C457.522 204.407 476.701 201.529 481.749 219.952C481.771 220.03 481.778 220.112 481.771 220.193C481.763 220.274 481.742 220.353 481.707 220.425C481.672 220.496 481.625 220.559 481.568 220.61C481.511 220.661 481.445 220.698 481.375 220.72L481.219 220.755Z" fill="#263238"/>
<path d="M512.894 250.222C512.894 250.222 519.328 250.1 519.547 251.356C519.765 252.612 519.344 263.168 518.487 264.651C517.553 265.991 516.481 267.203 515.293 268.262L515.916 286.965L512.084 288.465L508.609 271.35C508.609 271.35 504.668 267.041 505.821 261.58C506.974 256.119 512.894 250.222 512.894 250.222Z" fill="#EBB376"/>
<path opacity="0.1" d="M512.894 250.222C512.894 250.222 519.328 250.1 519.547 251.356C519.765 252.612 519.344 263.168 518.487 264.651C517.553 265.991 516.481 267.203 515.293 268.262L515.916 286.965L512.084 288.465L508.609 271.35C508.609 271.35 504.668 267.041 505.821 261.58C506.974 256.119 512.894 250.222 512.894 250.222Z" fill="black"/>
<path d="M501.972 259.434C501.967 259.591 501.992 259.747 502.045 259.892C502.098 260.037 502.178 260.167 502.28 260.274C502.382 260.382 502.503 260.464 502.635 260.514C502.768 260.565 502.908 260.584 503.047 260.568L513.953 259.626C514.257 259.594 514.54 259.44 514.752 259.194C514.963 258.947 515.089 258.624 515.106 258.283L515.885 233.857C515.894 233.69 515.872 233.523 515.821 233.366C515.77 233.209 515.691 233.065 515.59 232.942C515.488 232.82 515.365 232.722 515.228 232.654C515.091 232.587 514.944 232.551 514.795 232.549L503.889 233.491C503.572 233.562 503.286 233.75 503.076 234.025C502.867 234.301 502.747 234.647 502.736 235.009L501.972 259.434Z" fill="#263238"/>
<path opacity="0.5" d="M503.952 234.765L503.235 259.4C503.214 259.546 503.224 259.695 503.265 259.836C503.305 259.977 503.374 260.105 503.466 260.21C503.559 260.316 503.672 260.395 503.797 260.442C503.922 260.489 504.055 260.503 504.186 260.482L513.456 259.68C514.079 259.68 515.201 259.139 515.216 258.441L515.995 233.736C515.995 233.038 514.92 232.585 514.297 232.637L504.949 233.439C504.663 233.475 504.399 233.632 504.213 233.879C504.028 234.126 503.934 234.443 503.952 234.765Z" fill="white"/>
<path d="M490.849 277.963L495.009 267.094C495.009 267.094 496.364 252.526 497.018 250.956C497.673 249.386 508.267 249.979 509.482 249.891C510.698 249.804 510.417 264.337 509.311 265.873C508.205 267.408 503.874 268.629 503.874 268.629L497.221 283.075L490.849 277.963Z" fill="#EBB376"/>
<path d="M479.132 272.065C478.011 277.055 473.695 280.894 464.768 280.789C459.705 280.692 454.799 278.812 450.746 275.415C447.519 272.76 444.726 269.502 442.488 265.785C443.781 265.523 445.09 265.296 446.399 265.069C453.31 263.841 460.282 263.101 467.276 262.854C470.969 262.854 474.879 262.976 478.182 263.168C479.341 265.943 479.674 269.062 479.132 272.065Z" fill="#EBB376"/>
<path d="M441.507 340.719L439.575 350.175L489.369 347.244L487.935 337.91L441.507 340.719Z" fill="#263238"/>
<path d="M469.8 348.797C469.339 348.8 468.893 348.61 468.55 348.265C468.208 347.92 467.992 347.444 467.946 346.93L467.369 340.894C467.323 340.321 467.48 339.751 467.805 339.306C467.967 339.09 468.167 338.914 468.392 338.788C468.617 338.662 468.863 338.589 469.114 338.573L476.374 338.015C476.863 337.976 477.346 338.154 477.719 338.509C478.091 338.865 478.325 339.37 478.369 339.917L478.867 345.866C478.912 346.425 478.761 346.982 478.446 347.419C478.286 347.633 478.089 347.808 477.867 347.934C477.645 348.06 477.402 348.134 477.153 348.152L469.955 348.797H469.8ZM468.927 340.702L469.488 346.738C469.5 346.829 469.541 346.912 469.605 346.97C469.668 347.028 469.749 347.058 469.831 347.052L477.029 346.424C477.071 346.418 477.113 346.403 477.15 346.379C477.188 346.355 477.22 346.323 477.247 346.285C477.302 346.212 477.33 346.118 477.325 346.023L476.811 340.074C476.809 340.029 476.799 339.984 476.781 339.944C476.763 339.903 476.738 339.867 476.707 339.838C476.677 339.808 476.641 339.786 476.603 339.773C476.564 339.759 476.523 339.755 476.483 339.76L469.223 340.318C469.178 340.316 469.134 340.326 469.093 340.347C469.052 340.368 469.017 340.4 468.989 340.44C468.974 340.481 468.965 340.526 468.965 340.571C468.965 340.616 468.974 340.66 468.989 340.702H468.927Z" fill="white"/>
<path d="M476.748 343.702H474.068C473.861 343.702 473.663 343.61 473.517 343.446C473.371 343.283 473.289 343.061 473.289 342.829C473.293 342.599 473.376 342.38 473.522 342.217C473.667 342.055 473.863 341.961 474.068 341.957H476.748C476.953 341.961 477.149 342.055 477.294 342.217C477.439 342.38 477.523 342.599 477.527 342.829C477.527 343.061 477.445 343.283 477.299 343.446C477.153 343.61 476.954 343.702 476.748 343.702Z" fill="white"/>
<path opacity="0.2" d="M448.376 300.696C443.967 302.44 439.028 299.387 435.679 296.439C434.822 293.403 433.84 290.14 432.718 286.581C432.453 285.744 431.784 283.65 430.973 281.225C430.333 279.289 430.205 277.188 430.606 275.173C431.007 273.158 431.919 271.315 433.233 269.867C441.708 278.817 454.266 298.445 448.376 300.696Z" fill="black"/>
<path d="M433.124 268.68C434.008 267.882 435.029 267.297 436.124 266.96C437.218 266.623 438.363 266.542 439.487 266.722C440.611 266.902 441.69 267.339 442.656 268.006C443.623 268.673 444.456 269.556 445.105 270.599C451.944 281.573 463.427 299.823 464.814 300.713C466.792 302.004 481.718 286.598 495.023 267.058L503.171 270.547C503.171 270.547 482.123 319.014 467.182 319.224C455.98 319.381 439.138 293.943 431.488 281.155C430.308 279.227 429.821 276.871 430.124 274.559C430.427 272.246 431.499 270.147 433.124 268.68Z" fill="#EBB376"/>
<path opacity="0.2" d="M448.377 357.922C448.377 357.922 444.575 369.489 435.181 373.624V377.776C435.181 377.776 448.953 371.216 450.885 360.33L448.377 357.922Z" fill="black"/>
<path opacity="0.2" d="M437.688 418.846L450.885 416.072L454.032 445.767L441.396 447.825L439.574 428.494L450.978 426.68L450.324 419.352L450.137 425.86L437.314 428.163L437.688 418.846Z" fill="black"/>
<defs>
<linearGradient id="paint0_linear_147_11882" x1="128.906" y1="499.76" x2="128.906" y2="565.523" gradientUnits="userSpaceOnUse">
<stop stop-color="#152D43"/>
<stop offset="1" stop-color="#3572A9"/>
</linearGradient>
<linearGradient id="paint1_linear_147_11882" x1="149.518" y1="487.484" x2="149.518" y2="575.748" gradientUnits="userSpaceOnUse">
<stop stop-color="#152D43"/>
<stop offset="1" stop-color="#3572A9"/>
</linearGradient>
<linearGradient id="paint2_linear_147_11882" x1="135.474" y1="482.703" x2="135.474" y2="569.205" gradientUnits="userSpaceOnUse">
<stop stop-color="#152D43"/>
<stop offset="1" stop-color="#3572A9"/>
</linearGradient>
<linearGradient id="paint3_linear_147_11882" x1="156.82" y1="513.309" x2="156.82" y2="569.152" gradientUnits="userSpaceOnUse">
<stop stop-color="#152D43"/>
<stop offset="1" stop-color="#3572A9"/>
</linearGradient>
<linearGradient id="paint4_linear_147_11882" x1="125.81" y1="515.326" x2="125.81" y2="569.188" gradientUnits="userSpaceOnUse">
<stop stop-color="#152D43"/>
<stop offset="1" stop-color="#3572A9"/>
</linearGradient>
<linearGradient id="paint5_linear_147_11882" x1="142.013" y1="475.986" x2="142.013" y2="574.003" gradientUnits="userSpaceOnUse">
<stop stop-color="#152D43"/>
<stop offset="1" stop-color="#3572A9"/>
</linearGradient>
<linearGradient id="paint6_linear_147_11882" x1="171.064" y1="517.197" x2="171.064" y2="544.517" gradientUnits="userSpaceOnUse">
<stop stop-color="#152D43"/>
<stop offset="1" stop-color="#3572A9"/>
</linearGradient>
<linearGradient id="paint7_linear_147_11882" x1="171.064" y1="517.197" x2="171.064" y2="544.517" gradientUnits="userSpaceOnUse">
<stop stop-color="#152D43"/>
<stop offset="1" stop-color="#3572A9"/>
</linearGradient>
<linearGradient id="paint8_linear_147_11882" x1="135.302" y1="509.395" x2="135.302" y2="539.109" gradientUnits="userSpaceOnUse">
<stop stop-color="#152D43"/>
<stop offset="1" stop-color="#3572A9"/>
</linearGradient>
<linearGradient id="paint9_linear_147_11882" x1="135.302" y1="509.395" x2="135.302" y2="539.109" gradientUnits="userSpaceOnUse">
<stop stop-color="#152D43"/>
<stop offset="1" stop-color="#3572A9"/>
</linearGradient>
<linearGradient id="paint10_linear_147_11882" x1="125.769" y1="476.5" x2="125.769" y2="493.87" gradientUnits="userSpaceOnUse">
<stop stop-color="#152D43"/>
<stop offset="1" stop-color="#3572A9"/>
</linearGradient>
<linearGradient id="paint11_linear_147_11882" x1="125.769" y1="476.5" x2="125.769" y2="493.87" gradientUnits="userSpaceOnUse">
<stop stop-color="#152D43"/>
<stop offset="1" stop-color="#3572A9"/>
</linearGradient>
<linearGradient id="paint12_linear_147_11882" x1="147.799" y1="463.301" x2="147.799" y2="483.356" gradientUnits="userSpaceOnUse">
<stop stop-color="#152D43"/>
<stop offset="1" stop-color="#3572A9"/>
</linearGradient>
<linearGradient id="paint13_linear_147_11882" x1="147.799" y1="463.301" x2="147.799" y2="483.356" gradientUnits="userSpaceOnUse">
<stop stop-color="#152D43"/>
<stop offset="1" stop-color="#3572A9"/>
</linearGradient>
<linearGradient id="paint14_linear_147_11882" x1="114.87" y1="515.965" x2="114.87" y2="532.472" gradientUnits="userSpaceOnUse">
<stop stop-color="#152D43"/>
<stop offset="1" stop-color="#3572A9"/>
</linearGradient>
<linearGradient id="paint15_linear_147_11882" x1="114.87" y1="515.965" x2="114.87" y2="532.472" gradientUnits="userSpaceOnUse">
<stop stop-color="#152D43"/>
<stop offset="1" stop-color="#3572A9"/>
</linearGradient>
<linearGradient id="paint16_linear_147_11882" x1="165.355" y1="479.801" x2="165.355" y2="496.294" gradientUnits="userSpaceOnUse">
<stop stop-color="#152D43"/>
<stop offset="1" stop-color="#3572A9"/>
</linearGradient>
<linearGradient id="paint17_linear_147_11882" x1="165.355" y1="479.801" x2="165.355" y2="496.294" gradientUnits="userSpaceOnUse">
<stop stop-color="#152D43"/>
<stop offset="1" stop-color="#3572A9"/>
</linearGradient>
<linearGradient id="paint18_linear_147_11882" x1="149.581" y1="494.797" x2="149.581" y2="514.108" gradientUnits="userSpaceOnUse">
<stop stop-color="#152D43"/>
<stop offset="1" stop-color="#3572A9"/>
</linearGradient>
<linearGradient id="paint19_linear_147_11882" x1="149.581" y1="494.797" x2="149.581" y2="514.108" gradientUnits="userSpaceOnUse">
<stop stop-color="#152D43"/>
<stop offset="1" stop-color="#3572A9"/>
</linearGradient>
<linearGradient id="paint20_linear_147_11882" x1="115.736" y1="498.492" x2="115.736" y2="513.463" gradientUnits="userSpaceOnUse">
<stop stop-color="#152D43"/>
<stop offset="1" stop-color="#3572A9"/>
</linearGradient>
<linearGradient id="paint21_linear_147_11882" x1="115.736" y1="498.492" x2="115.736" y2="513.463" gradientUnits="userSpaceOnUse">
<stop stop-color="#152D43"/>
<stop offset="1" stop-color="#3572A9"/>
</linearGradient>
<linearGradient id="paint22_linear_147_11882" x1="142.244" y1="558.633" x2="142.244" y2="613.852" gradientUnits="userSpaceOnUse">
<stop stop-color="#152D43"/>
<stop offset="1" stop-color="#3572A9"/>
</linearGradient>
<linearGradient id="paint23_linear_147_11882" x1="142.244" y1="558.633" x2="142.244" y2="613.852" gradientUnits="userSpaceOnUse">
<stop stop-color="#152D43"/>
<stop offset="1" stop-color="#3572A9"/>
</linearGradient>
<linearGradient id="paint24_linear_147_11882" x1="142.252" y1="552.543" x2="142.252" y2="564.721" gradientUnits="userSpaceOnUse">
<stop stop-color="#152D43"/>
<stop offset="1" stop-color="#3572A9"/>
</linearGradient>
<linearGradient id="paint25_linear_147_11882" x1="142.252" y1="552.543" x2="142.252" y2="564.721" gradientUnits="userSpaceOnUse">
<stop stop-color="#152D43"/>
<stop offset="1" stop-color="#3572A9"/>
</linearGradient>
<linearGradient id="paint26_linear_147_11882" x1="581.727" y1="418.846" x2="581.727" y2="496.188" gradientUnits="userSpaceOnUse">
<stop stop-color="#152D43"/>
<stop offset="1" stop-color="#3572A9"/>
</linearGradient>
<linearGradient id="paint27_linear_147_11882" x1="581.727" y1="501.334" x2="581.727" y2="578.676" gradientUnits="userSpaceOnUse">
<stop stop-color="#152D43"/>
<stop offset="1" stop-color="#3572A9"/>
</linearGradient>
<linearGradient id="paint28_linear_147_11882" x1="581.727" y1="379.816" x2="581.727" y2="413.681" gradientUnits="userSpaceOnUse">
<stop stop-color="#152D43"/>
<stop offset="1" stop-color="#3572A9"/>
</linearGradient>
<linearGradient id="paint29_linear_147_11882" x1="615.596" y1="335.293" x2="615.596" y2="368.948" gradientUnits="userSpaceOnUse">
<stop stop-color="#152D43"/>
<stop offset="1" stop-color="#3572A9"/>
</linearGradient>
<linearGradient id="paint30_linear_147_11882" x1="560.102" y1="347.803" x2="560.102" y2="368.024" gradientUnits="userSpaceOnUse">
<stop stop-color="#152D43"/>
<stop offset="1" stop-color="#3572A9"/>
</linearGradient>
<linearGradient id="paint31_linear_147_11882" x1="313.771" y1="169.217" x2="313.771" y2="628.402" gradientUnits="userSpaceOnUse">
<stop stop-color="#152D43"/>
<stop offset="1" stop-color="#3572A9"/>
</linearGradient>
<linearGradient id="paint32_linear_147_11882" x1="313.773" y1="199.242" x2="313.773" y2="245.005" gradientUnits="userSpaceOnUse">
<stop stop-color="#152D43"/>
<stop offset="1" stop-color="#3572A9"/>
</linearGradient>
<linearGradient id="paint33_linear_147_11882" x1="313.772" y1="530.646" x2="313.772" y2="556.887" gradientUnits="userSpaceOnUse">
<stop stop-color="#152D43"/>
<stop offset="1" stop-color="#3572A9"/>
</linearGradient>
<linearGradient id="paint34_linear_147_11882" x1="559.173" y1="190.484" x2="559.173" y2="226.672" gradientUnits="userSpaceOnUse">
<stop stop-color="#152D43"/>
<stop offset="1" stop-color="#3572A9"/>
</linearGradient>
<linearGradient id="paint35_linear_147_11882" x1="544.255" y1="219.848" x2="544.255" y2="248.303" gradientUnits="userSpaceOnUse">
<stop stop-color="#152D43"/>
<stop offset="1" stop-color="#3572A9"/>
</linearGradient>
<linearGradient id="paint36_linear_147_11882" x1="459.995" y1="262.871" x2="459.995" y2="344.627" gradientUnits="userSpaceOnUse">
<stop stop-color="#152D43"/>
<stop offset="1" stop-color="#3572A9"/>
</linearGradient>
</defs>
</svg>
