<svg width="671" height="643" viewBox="0 0 671 643" fill="none" xmlns="http://www.w3.org/2000/svg">
<path d="M335.761 643C520.899 643 670.983 557.306 670.983 451.597C670.983 345.887 520.899 260.193 335.761 260.193C150.623 260.193 0.539062 345.887 0.539062 451.597C0.539062 557.306 150.623 643 335.761 643Z" fill="#4176A6"/>
<path d="M528.279 518.01C506.297 505.459 506.297 485.113 528.279 472.562C550.261 460.011 585.902 460.011 607.884 472.562C629.866 485.113 629.866 505.459 607.884 518.01C585.902 530.561 550.261 530.561 528.279 518.01Z" fill="#E0E0E0"/>
<path d="M81.1835 519.755L23.3616 486.745C20.1034 484.887 20.1034 481.862 23.3616 480.005L359.693 287.969C361.521 287.053 363.541 286.575 365.591 286.575C367.64 286.575 369.66 287.053 371.488 287.969L429.324 320.978C432.582 322.836 432.582 325.861 429.324 327.718L92.9926 519.755C91.1622 520.671 89.1395 521.148 87.088 521.148C85.0366 521.148 83.0139 520.671 81.1835 519.755Z" fill="#E0E0E0"/>
<path d="M289.021 460.911L338.733 432.489C343.855 429.562 346.416 425.735 346.416 421.893C346.416 418.052 346.416 415.055 346.416 415.055L294.854 386.295C293.414 385.373 292.215 384.128 291.354 382.661C290.493 381.194 289.996 379.546 289.903 377.852V317.222L203.113 366.835V427.437C203.213 429.129 203.713 430.775 204.573 432.241C205.433 433.707 206.629 434.953 208.065 435.88L251.943 460.869C262.159 466.765 278.777 466.765 289.021 460.911Z" fill="#000C40"/>
<g opacity="0.6">
<path d="M289.021 460.911L338.733 432.489C343.855 429.562 346.416 425.735 346.416 421.893C346.416 418.052 346.416 415.055 346.416 415.055L294.854 386.295C293.414 385.373 292.215 384.128 291.354 382.661C290.493 381.194 289.996 379.546 289.903 377.852V317.222L203.113 366.835V427.437C203.213 429.129 203.713 430.775 204.573 432.241C205.433 433.707 206.629 434.953 208.065 435.88L251.943 460.869C262.159 466.765 278.777 466.765 289.021 460.911Z" fill="black"/>
</g>
<path opacity="0.3" d="M223.93 438.174V444.984L208.023 435.909C206.588 434.984 205.393 433.737 204.535 432.271C203.677 430.804 203.181 429.158 203.086 427.466V366.836L219.619 357.395C219.96 361.545 220.33 365.837 220.686 370.058L209.062 376.671V424.019C209.154 425.713 209.651 427.361 210.511 428.829C211.372 430.296 212.572 431.541 214.013 432.462L223.93 438.174Z" fill="black"/>
<path d="M209.062 424.033C209.16 425.725 209.659 427.371 210.52 428.838C211.38 430.305 212.577 431.551 214.014 432.475L251.888 454.059C262.132 459.899 278.75 459.913 289.009 454.059L338.806 425.637C349.064 419.783 349.064 410.3 338.806 404.446L300.903 382.862C299.469 381.935 298.276 380.688 297.418 379.222C296.561 377.756 296.063 376.111 295.966 374.419V327.058L209.176 376.671L209.062 424.033Z" fill="#000C40"/>
<path opacity="0.3" d="M209.062 424.033C209.16 425.725 209.659 427.371 210.52 428.838C211.38 430.305 212.577 431.551 214.014 432.475L251.888 454.059C262.132 459.899 278.75 459.913 289.009 454.059L338.806 425.637C349.064 419.783 349.064 410.3 338.806 404.446L300.903 382.862C299.469 381.935 298.276 380.688 297.418 379.222C296.561 377.756 296.063 376.111 295.966 374.419V327.058L209.176 376.671L209.062 424.033Z" fill="black"/>
<path opacity="0.5" d="M310.932 388.645L300.844 382.89C299.41 381.963 298.217 380.716 297.359 379.25C296.502 377.784 296.004 376.139 295.907 374.448V327.058L209.117 376.671V424.033C209.215 425.725 209.714 427.371 210.574 428.838C211.434 430.305 212.631 431.551 214.068 432.475L224.028 438.103L310.932 388.645Z" fill="black"/>
<path d="M346.432 415.069V421.908C346.432 425.749 343.857 429.562 338.749 432.503L288.952 460.912C283.502 463.788 277.416 465.282 271.238 465.259V458.449C277.416 458.472 283.502 456.978 288.952 454.101L338.749 425.665C343.857 422.752 346.432 418.911 346.432 415.069Z" fill="#000C40"/>
<path opacity="0.5" d="M346.432 415.069V421.908C346.432 425.749 343.857 429.562 338.749 432.503L288.952 460.912C283.502 463.788 277.416 465.282 271.238 465.259V458.449C277.416 458.472 283.502 456.978 288.952 454.101L338.749 425.665C343.857 422.752 346.432 418.911 346.432 415.069Z" fill="black"/>
<path d="M69.6286 482.89C71.5049 483.786 73.5678 484.234 75.6511 484.198C77.7344 484.161 79.7799 483.641 81.6227 482.679L417.399 290.966C419.2 289.805 420.698 288.241 421.774 286.4C422.849 284.559 423.471 282.494 423.589 280.371V11.734C423.524 9.66898 422.967 7.64818 421.964 5.83629C420.96 4.02441 419.537 2.47272 417.812 1.30767C415.938 0.410466 413.876 -0.0367567 411.795 0.00236227C409.713 0.0414812 407.67 0.565837 405.832 1.5328L70.0555 193.302C68.2613 194.471 66.7719 196.042 65.7087 197.888C64.6454 199.734 64.0386 201.803 63.9375 203.925V472.52C64.001 474.568 64.5488 476.573 65.5372 478.374C66.5255 480.175 67.9268 481.722 69.6286 482.89Z" fill="#000C40"/>
<path d="M81.6657 482.665L417.442 290.952C419.245 289.794 420.746 288.23 421.821 286.388C422.897 284.547 423.517 282.481 423.631 280.357V11.7341C423.631 7.83656 420.857 6.24657 417.442 8.20239L81.6657 199.915C79.8644 201.076 78.3653 202.64 77.29 204.481C76.2146 206.322 75.5933 208.387 75.4766 210.51V479.133C75.4766 483.031 78.251 484.621 81.6657 482.665Z" fill="#000C40"/>
<path opacity="0.5" d="M81.6657 482.665L417.442 290.952C419.245 289.794 420.746 288.23 421.821 286.388C422.897 284.547 423.517 282.481 423.631 280.357V11.7341C423.631 7.83656 420.857 6.24657 417.442 8.20239L81.6657 199.915C79.8644 201.076 78.3653 202.64 77.29 204.481C76.2146 206.322 75.5933 208.387 75.4766 210.51V479.133C75.4766 483.031 78.251 484.621 81.6657 482.665Z" fill="black"/>
<path d="M80.7548 489.644C78.994 490.404 77.0875 490.777 75.1667 490.738C73.2459 490.699 71.3565 490.249 69.6286 489.418C67.923 488.247 66.5193 486.696 65.5308 484.89C64.5423 483.084 63.9966 481.073 63.9375 479.02V454.565L75.5332 461.207V485.662C75.462 489.221 77.7527 490.84 80.7548 489.644Z" fill="#000C40"/>
<path opacity="0.5" d="M80.7548 489.644C78.994 490.404 77.0875 490.777 75.1667 490.738C73.2459 490.699 71.3565 490.249 69.6286 489.418C67.923 488.247 66.5193 486.696 65.5308 484.89C64.5423 483.084 63.9966 481.073 63.9375 479.02V454.565L75.5332 461.207V485.662C75.462 489.221 77.7527 490.84 80.7548 489.644Z" fill="black"/>
<path d="M75.4609 461.208V485.662C75.4609 489.56 78.3065 491.136 81.65 489.194L417.427 297.481C419.22 296.326 420.714 294.77 421.789 292.94C422.863 291.109 423.489 289.055 423.616 286.942V262.375L75.4609 461.208Z" fill="#000C40"/>
<path opacity="0.3" d="M75.4766 461.151V485.662C75.4766 489.56 78.3221 491.136 81.6657 489.194L417.442 297.481C419.233 296.324 420.724 294.768 421.796 292.938C422.869 291.107 423.492 289.054 423.617 286.942V262.375L75.4766 461.151Z" fill="black"/>
<path d="M87.0703 430.463V214.323C87.1365 213.05 87.5062 211.81 88.149 210.705C88.7919 209.6 89.6898 208.66 90.7695 207.963L408.249 26.6348C410.298 25.467 411.963 26.4097 411.963 28.7454V244.997C411.894 246.272 411.521 247.512 410.876 248.617C410.231 249.722 409.331 250.661 408.249 251.357L90.7838 432.644C88.735 433.812 87.0703 432.855 87.0703 430.463Z" fill="#000C40"/>
<path d="M87.0703 430.463V214.323C87.1365 213.05 87.5062 211.81 88.149 210.705C88.7919 209.6 89.6898 208.66 90.7695 207.963L408.249 26.6348C410.298 25.467 411.963 26.4097 411.963 28.7454V244.997C411.894 246.272 411.521 247.512 410.876 248.617C410.231 249.722 409.331 250.661 408.249 251.357L90.7838 432.644C88.735 433.812 87.0703 432.855 87.0703 430.463Z" fill="#263238"/>
<path d="M249.539 369.58C247.849 370.667 246.443 372.133 245.434 373.859C244.425 375.585 243.843 377.523 243.734 379.513C243.734 383.172 246.338 384.663 249.539 382.834C251.231 381.746 252.639 380.277 253.648 378.548C254.657 376.82 255.238 374.879 255.344 372.886C255.344 369.228 252.741 367.75 249.539 369.58Z" fill="#000C40"/>
<path opacity="0.7" d="M77.2974 204.46C76.1948 206.293 75.5645 208.366 75.462 210.496V461.207L63.9375 454.566V203.925C64.0122 201.788 64.6391 199.705 65.7587 197.875L77.2974 204.46Z" fill="black"/>
<path opacity="0.3" d="M423.559 10.7215C423.118 7.56963 420.542 6.50026 417.426 8.20281L81.6497 199.916C79.8292 201.042 78.3265 202.605 77.2818 204.46L65.6719 197.833C66.7236 195.978 68.2306 194.415 70.054 193.288L405.831 1.5896C407.671 0.622499 409.717 0.0981179 411.801 0.0590024C413.885 0.0198868 415.948 0.467138 417.825 1.36447C419.402 2.42731 420.73 3.8127 421.72 5.42698C422.709 7.04126 423.336 8.84678 423.559 10.7215Z" fill="black"/>
<path d="M441.67 43.7866C441.171 43.5391 440.614 43.4306 440.057 43.4727C439.501 43.5149 438.966 43.7061 438.512 44.0258L121.686 225.031C120.436 225.849 119.398 226.946 118.657 228.234C117.915 229.523 117.491 230.965 117.418 232.446V447.263C117.374 447.988 117.519 448.712 117.841 449.366C118.162 450.019 118.649 450.579 119.253 450.992C119.951 451.372 123.678 453.51 124.788 454.101C125.181 454.299 125.619 454.39 126.059 454.366C126.499 454.341 126.925 454.201 127.292 453.961L444.046 272.956C445.296 272.138 446.334 271.04 447.076 269.752C447.817 268.464 448.242 267.021 448.315 265.54V49.6119C448.378 49.0662 448.287 48.5139 448.05 48.0168C447.814 47.5197 447.442 47.0975 446.977 46.7977C446.266 46.3334 442.467 44.251 441.67 43.7866Z" fill="#000C40"/>
<path d="M127.221 228.07L444.061 47.1353C446.451 45.7282 448.329 46.882 448.329 49.6117V265.54C448.256 267.021 447.832 268.464 447.09 269.752C446.349 271.04 445.311 272.137 444.061 272.955L127.221 453.96C124.831 455.367 122.953 453.102 122.953 450.372V235.485C123.028 234.005 123.454 232.563 124.195 231.275C124.936 229.987 125.973 228.889 127.221 228.07Z" fill="#0C354C"/>
<path d="M445.996 47.952C446.835 47.952 446.963 48.9932 446.963 49.6123V265.541C446.887 266.781 446.519 267.986 445.889 269.06C445.259 270.135 444.385 271.05 443.335 271.732L126.539 452.737C126.326 452.873 126.08 452.951 125.827 452.962C125.03 452.962 124.404 451.752 124.404 450.373V235.486C124.473 234.246 124.83 233.039 125.447 231.958C126.063 230.877 126.924 229.951 127.961 229.253L444.772 48.346C445.139 48.1121 445.56 47.9763 445.996 47.952ZM445.996 46.5449C445.31 46.5738 444.644 46.7773 444.061 47.1359L127.221 228.071C125.973 228.89 124.936 229.988 124.195 231.276C123.454 232.564 123.028 234.006 122.953 235.486V450.373C122.953 452.54 124.177 454.369 125.799 454.369C126.301 454.36 126.792 454.219 127.221 453.961L444.047 272.956C445.297 272.138 446.335 271.041 447.076 269.752C447.818 268.464 448.242 267.021 448.315 265.541V49.6123C448.315 47.6706 447.348 46.5449 445.925 46.5449H445.996Z" fill="#E0E0E0"/>
<path d="M119.169 450.992C119.639 451.231 123.011 453.13 124.491 453.975C123.959 453.539 123.538 452.986 123.262 452.36C122.985 451.735 122.86 451.054 122.897 450.372V249.514L117.348 246.306V447.263C117.302 447.987 117.446 448.71 117.765 449.363C118.084 450.016 118.567 450.577 119.169 450.992Z" fill="#F0F0F0"/>
<path d="M448.386 49.5702C448.386 46.8686 446.437 45.7711 444.118 47.136L127.221 228.071C125.973 228.89 124.936 229.988 124.195 231.276C123.454 232.564 123.028 234.006 122.953 235.486V249.556L448.386 63.6408V49.5702Z" fill="#000C40"/>
<g opacity="0.4">
<path d="M444.062 47.1359L127.223 228.056C125.951 228.85 124.904 229.948 124.178 231.251L118.672 228.085C119.396 226.828 120.435 225.777 121.688 225.031L438.513 44.0263C438.967 43.7043 439.501 43.5106 440.057 43.466C440.614 43.4214 441.172 43.5275 441.672 43.773C442.44 44.2514 446.04 46.2635 446.965 46.756C446.486 46.5806 445.972 46.5235 445.466 46.5897C444.96 46.6559 444.478 46.8434 444.062 47.1359Z" fill="white"/>
</g>
<path opacity="0.15" d="M117.348 246.321V232.377C117.406 230.857 117.862 229.378 118.671 228.085L124.191 231.237C123.394 232.508 122.948 233.963 122.897 235.458V249.529L117.348 246.321Z" fill="black"/>
<path d="M381.574 211.552L191.817 319.896C190.895 320.488 190.126 321.288 189.575 322.229C189.024 323.17 188.705 324.227 188.645 325.313V379.12C188.705 380.206 189.024 381.263 189.575 382.204C190.126 383.145 190.895 383.945 191.817 384.537L197.352 387.689C198.336 388.181 199.422 388.437 200.525 388.437C201.627 388.437 202.714 388.181 203.698 387.689L393.426 279.344C394.349 278.749 395.117 277.947 395.668 277.004C396.219 276.06 396.538 275.001 396.598 273.913V220.093C396.538 219.007 396.219 217.95 395.668 217.008C395.117 216.067 394.348 215.268 393.426 214.676L387.877 211.524C386.897 211.04 385.817 210.79 384.722 210.795C383.627 210.8 382.549 211.059 381.574 211.552Z" fill="#000C40"/>
<path opacity="0.5" d="M396.597 219.614C396.369 217.996 395.046 217.405 393.453 218.319L203.696 326.664C202.76 327.239 201.991 328.043 201.462 328.999L189.582 322.217C190.115 321.276 190.878 320.483 191.802 319.91L381.572 211.565C382.553 211.072 383.638 210.815 384.738 210.815C385.838 210.815 386.923 211.072 387.904 211.565L393.453 214.717C394.299 215.266 395.017 215.986 395.559 216.83C396.101 217.675 396.455 218.624 396.597 219.614Z" fill="white"/>
<path d="M203.157 387.955C202.228 388.317 201.232 388.482 200.234 388.438C199.237 388.394 198.259 388.143 197.366 387.702L191.817 384.55C190.896 383.956 190.129 383.156 189.578 382.215C189.027 381.274 188.707 380.218 188.645 379.133V325.326C188.687 324.228 189.01 323.158 189.584 322.217L201.464 328.999C200.886 329.928 200.563 330.99 200.525 332.08V385.901C200.525 387.688 201.663 388.518 203.157 387.955Z" fill="#263238"/>
<path d="M203.695 326.663L393.452 218.319C395.202 217.32 396.624 218.122 396.624 220.12V273.94C396.564 275.029 396.245 276.087 395.694 277.031C395.143 277.975 394.375 278.777 393.452 279.372L203.724 387.716C201.974 388.715 200.551 387.899 200.551 385.901V332.095C200.608 331.009 200.922 329.952 201.468 329.008C202.015 328.065 202.777 327.262 203.695 326.663Z" fill="#000C40"/>
<path d="M331.262 240.284L191.829 319.91C190.905 320.483 190.142 321.277 189.609 322.218L201.49 329C202.018 328.044 202.788 327.239 203.723 326.664L343.156 247.052L331.262 240.284Z" fill="#455A64"/>
<path d="M343.129 247.052L203.696 326.664C202.773 327.259 202.005 328.061 201.454 329.004C200.902 329.948 200.584 331.007 200.523 332.095V385.887C200.523 387.885 201.946 388.701 203.696 387.702L343.129 308.09V247.052Z" fill="#37474F"/>
<path d="M235.852 320.106L307.802 279.034C310.776 277.332 313.194 278.542 313.194 281.736C313.061 283.53 312.502 285.267 311.563 286.807C310.624 288.348 309.33 289.647 307.788 290.6L235.852 331.686C232.878 333.389 230.445 332.179 230.445 328.985C230.58 327.189 231.139 325.45 232.078 323.908C233.017 322.366 234.31 321.063 235.852 320.106Z" fill="#000C40"/>
<path d="M250.592 333.714C250.606 333.699 250.622 333.687 250.641 333.678C250.659 333.67 250.679 333.666 250.699 333.666C250.719 333.666 250.739 333.67 250.758 333.678C250.776 333.687 250.792 333.699 250.806 333.714C250.869 333.809 250.899 333.923 250.891 334.037V342.043C250.892 342.817 250.825 343.589 250.692 344.351C250.574 345.047 250.374 345.728 250.094 346.377C249.839 346.972 249.504 347.531 249.098 348.038C248.698 348.507 248.216 348.903 247.676 349.205C247.252 349.478 246.758 349.625 246.253 349.628C246.06 349.612 245.872 349.558 245.701 349.469C245.529 349.379 245.378 349.256 245.257 349.107C244.945 348.693 244.74 348.21 244.659 347.7C244.523 347.019 244.461 346.326 244.474 345.631V337.611C244.474 337.471 244.503 337.332 244.56 337.203C244.595 337.087 244.67 336.987 244.773 336.922L245.67 336.401C245.698 336.374 245.737 336.36 245.776 336.36C245.816 336.36 245.854 336.374 245.883 336.401C245.949 336.496 245.979 336.61 245.968 336.725V344.632C245.957 345.068 246 345.502 246.096 345.927C246.136 346.199 246.254 346.453 246.438 346.659C246.502 346.734 246.583 346.794 246.674 346.833C246.766 346.872 246.865 346.889 246.964 346.884C247.208 346.868 247.443 346.79 247.647 346.659C247.9 346.509 248.13 346.324 248.33 346.11C248.552 345.857 248.734 345.572 248.871 345.266C249.031 344.905 249.151 344.527 249.226 344.14C249.309 343.676 249.348 343.204 249.34 342.733V334.811C249.345 334.67 249.379 334.531 249.44 334.403C249.475 334.287 249.55 334.187 249.653 334.122L250.592 333.714Z" fill="#FAFAFA"/>
<path d="M256.168 341.283C256.175 341.18 256.151 341.077 256.097 340.988C256.063 340.951 256.021 340.923 255.974 340.906C255.927 340.889 255.876 340.883 255.827 340.889C255.652 340.866 255.475 340.866 255.3 340.889L254.475 341.044C254.209 341.11 253.93 341.11 253.664 341.044C253.455 340.978 253.275 340.844 253.152 340.664C253.013 340.436 252.921 340.182 252.881 339.918C252.743 339.165 252.743 338.393 252.881 337.639C252.988 337.207 253.141 336.787 253.337 336.387C253.532 335.987 253.77 335.609 254.048 335.261C254.317 334.929 254.645 334.648 255.016 334.431C255.315 334.251 255.649 334.135 255.997 334.093C256.25 334.067 256.504 334.122 256.723 334.248C256.932 334.374 257.096 334.561 257.192 334.783C257.307 335.045 257.37 335.327 257.377 335.613C257.392 335.754 257.362 335.897 257.292 336.021C257.257 336.137 257.181 336.237 257.079 336.302L256.225 336.795C256.186 336.817 256.142 336.829 256.097 336.829C256.052 336.829 256.008 336.817 255.969 336.795L255.784 336.654C255.71 336.597 255.621 336.562 255.528 336.556C255.345 336.576 255.169 336.638 255.016 336.739C254.792 336.872 254.595 337.043 254.432 337.245C254.26 337.467 254.17 337.74 254.176 338.019C254.156 338.126 254.156 338.236 254.176 338.343C254.203 338.382 254.239 338.416 254.281 338.44C254.323 338.464 254.37 338.479 254.418 338.483C254.573 338.509 254.732 338.509 254.888 338.483L255.684 338.343C256.353 338.216 256.808 338.343 257.107 338.708C257.421 339.23 257.565 339.834 257.52 340.439C257.516 340.857 257.459 341.273 257.349 341.677C257.236 342.116 257.074 342.541 256.865 342.944C256.656 343.36 256.393 343.748 256.083 344.097C255.788 344.439 255.437 344.73 255.044 344.956C254.731 345.154 254.375 345.274 254.005 345.308C253.738 345.317 253.474 345.243 253.251 345.096C253.032 344.948 252.863 344.737 252.768 344.491C252.653 344.225 252.594 343.937 252.597 343.647C252.584 343.501 252.613 343.355 252.682 343.225C252.717 343.109 252.793 343.009 252.896 342.944L253.749 342.451C253.863 342.451 253.948 342.381 254.005 342.451L254.19 342.648C254.228 342.69 254.274 342.724 254.325 342.748C254.377 342.773 254.432 342.786 254.489 342.789C254.689 342.79 254.884 342.726 255.044 342.606C255.301 342.462 255.532 342.276 255.727 342.057C255.824 341.941 255.905 341.814 255.969 341.677C256.069 341.566 256.138 341.43 256.168 341.283Z" fill="#FAFAFA"/>
<path d="M259.071 337.47C259.068 336.739 259.13 336.009 259.256 335.289C259.375 334.611 259.56 333.947 259.811 333.305C260.02 332.73 260.307 332.186 260.664 331.687C260.963 331.258 261.351 330.899 261.803 330.632C262.132 330.413 262.535 330.327 262.927 330.393C263.274 330.472 263.579 330.678 263.78 330.97C264.048 331.351 264.236 331.782 264.335 332.236C264.472 332.827 264.538 333.431 264.534 334.037V334.909C264.539 335.056 264.504 335.202 264.435 335.331C264.4 335.447 264.324 335.547 264.221 335.613L260.522 337.738C260.513 337.985 260.547 338.233 260.622 338.469C260.677 338.629 260.775 338.77 260.906 338.877C261.023 338.969 261.17 339.014 261.319 339.004C261.491 338.984 261.656 338.926 261.803 338.835C262.018 338.72 262.21 338.567 262.372 338.385C262.517 338.223 262.641 338.043 262.742 337.85C262.802 337.739 262.869 337.631 262.941 337.526C263.002 337.455 263.074 337.393 263.154 337.344L264.036 336.837C264.067 336.813 264.104 336.8 264.143 336.8C264.182 336.8 264.219 336.813 264.25 336.837C264.287 336.881 264.314 336.933 264.329 336.989C264.344 337.045 264.346 337.104 264.335 337.161C264.32 337.435 264.262 337.705 264.164 337.963C264.042 338.353 263.88 338.73 263.681 339.088C263.458 339.5 263.191 339.887 262.884 340.242C262.578 340.605 262.212 340.914 261.803 341.157C261.466 341.374 261.064 341.469 260.664 341.424C260.314 341.341 260.009 341.13 259.811 340.833C259.531 340.406 259.342 339.928 259.256 339.426C259.126 338.782 259.064 338.127 259.071 337.47ZM261.803 332.982C261.584 333.098 261.394 333.262 261.248 333.46C261.09 333.657 260.96 333.875 260.863 334.107C260.764 334.34 260.683 334.58 260.622 334.825C260.572 335.047 260.538 335.273 260.522 335.5L263.026 334.093C263.012 333.899 262.983 333.706 262.941 333.516C262.919 333.346 262.85 333.186 262.742 333.052C262.699 332.991 262.644 332.94 262.58 332.901C262.517 332.862 262.446 332.837 262.372 332.827C262.169 332.81 261.968 332.865 261.803 332.982Z" fill="#FAFAFA"/>
<path d="M269.002 329.055C268.57 329.299 268.231 329.674 268.034 330.125C267.813 330.718 267.711 331.35 267.735 331.982V337.061C267.737 337.207 267.708 337.35 267.65 337.484C267.615 337.6 267.539 337.699 267.436 337.765L266.597 338.243C266.584 338.258 266.567 338.27 266.549 338.279C266.53 338.287 266.511 338.291 266.49 338.291C266.47 338.291 266.45 338.287 266.432 338.279C266.413 338.27 266.397 338.258 266.384 338.243C266.32 338.148 266.29 338.034 266.298 337.92V328.816C266.299 328.671 266.328 328.528 266.384 328.394C266.423 328.28 266.498 328.182 266.597 328.113L267.436 327.634C267.465 327.607 267.504 327.593 267.543 327.593C267.583 327.593 267.621 327.607 267.65 327.634C267.716 327.723 267.746 327.834 267.735 327.944V328.394C267.905 328.016 268.115 327.658 268.361 327.325C268.586 327.016 268.878 326.762 269.215 326.579L269.727 326.283C269.754 326.258 269.79 326.243 269.827 326.243C269.864 326.243 269.9 326.258 269.926 326.283C269.995 326.377 270.03 326.491 270.026 326.607V327.887C270.023 328.034 269.99 328.177 269.926 328.31C269.89 328.421 269.821 328.519 269.727 328.591L269.002 329.055Z" fill="#FAFAFA"/>
<path d="M279.615 328.381C279.629 328.366 279.645 328.354 279.663 328.346C279.682 328.338 279.702 328.333 279.722 328.333C279.742 328.333 279.762 328.338 279.781 328.346C279.799 328.354 279.815 328.366 279.829 328.381C279.892 328.477 279.922 328.591 279.914 328.705V330.112C279.913 330.257 279.884 330.4 279.829 330.534C279.78 330.638 279.707 330.73 279.615 330.801L274.749 333.615C274.72 333.642 274.682 333.657 274.643 333.657C274.603 333.657 274.565 333.642 274.536 333.615C274.472 333.525 274.442 333.416 274.451 333.306V320.642C274.451 320.497 274.48 320.354 274.536 320.22C274.576 320.11 274.651 320.017 274.749 319.953L275.646 319.432C275.675 319.405 275.713 319.391 275.752 319.391C275.792 319.391 275.83 319.405 275.859 319.432C275.923 319.523 275.953 319.632 275.945 319.742V330.45L279.615 328.381Z" fill="#FAFAFA"/>
<path d="M283.984 317.968C284.304 317.749 284.691 317.644 285.08 317.672C285.413 317.698 285.723 317.849 285.947 318.095C286.213 318.396 286.407 318.751 286.517 319.136C286.669 319.634 286.755 320.149 286.773 320.669C286.773 320.782 286.773 320.937 286.773 321.12V322.203C286.773 322.372 286.773 322.527 286.773 322.653C286.744 323.265 286.659 323.873 286.517 324.469C286.385 325.049 286.194 325.615 285.947 326.157C285.722 326.662 285.43 327.135 285.08 327.564C284.779 327.953 284.408 328.283 283.984 328.535C283.655 328.747 283.266 328.85 282.874 328.83C282.546 328.802 282.24 328.651 282.021 328.408C281.748 328.118 281.552 327.765 281.451 327.381C281.299 326.883 281.213 326.368 281.195 325.847C281.195 325.735 281.195 325.594 281.195 325.411V324.328C281.195 324.145 281.195 323.99 281.195 323.878C281.212 323.261 281.293 322.648 281.437 322.048C281.576 321.464 281.771 320.893 282.021 320.346C282.247 319.844 282.533 319.372 282.874 318.939C283.176 318.546 283.553 318.216 283.984 317.968ZM285.321 321.598C285.321 321.287 285.268 320.978 285.165 320.684C285.112 320.504 285.002 320.346 284.852 320.233C284.731 320.153 284.584 320.118 284.439 320.135C284.277 320.165 284.122 320.227 283.984 320.318C283.817 320.408 283.663 320.522 283.529 320.655C283.365 320.823 283.227 321.013 283.116 321.218C282.973 321.474 282.868 321.749 282.803 322.034C282.71 322.394 282.653 322.761 282.632 323.132C282.632 323.244 282.632 323.371 282.632 323.526V324.525C282.632 324.68 282.632 324.806 282.632 324.891C282.646 325.202 282.703 325.51 282.803 325.805C282.855 325.985 282.965 326.143 283.116 326.256C283.175 326.297 283.242 326.326 283.313 326.34C283.384 326.355 283.458 326.355 283.529 326.34C283.69 326.313 283.845 326.256 283.984 326.171C284.149 326.077 284.302 325.964 284.439 325.833C284.598 325.662 284.736 325.473 284.852 325.271C284.989 325.012 285.094 324.738 285.165 324.455C285.258 324.095 285.31 323.727 285.321 323.357C285.33 323.226 285.33 323.094 285.321 322.963V321.978C285.33 321.852 285.33 321.725 285.321 321.598Z" fill="#FAFAFA"/>
<path d="M291.126 326.199C291.308 326.089 291.471 325.951 291.61 325.791C291.781 325.592 291.929 325.375 292.051 325.144C292.192 324.861 292.302 324.564 292.378 324.257C292.466 323.912 292.509 323.558 292.506 323.202V322.484C292.506 322.625 292.364 322.794 292.264 322.991C292.167 323.197 292.052 323.394 291.923 323.582C291.774 323.78 291.613 323.968 291.439 324.145C291.261 324.33 291.054 324.486 290.827 324.609C290.681 324.708 290.516 324.776 290.343 324.81C290.169 324.844 289.99 324.842 289.817 324.806C289.501 324.708 289.229 324.504 289.049 324.229C288.817 323.866 288.648 323.466 288.551 323.047C288.429 322.516 288.363 321.974 288.352 321.429C288.352 321.246 288.352 321.021 288.352 320.754C288.352 320.486 288.352 320.261 288.352 320.064C288.369 319.446 288.436 318.829 288.551 318.221C288.668 317.622 288.834 317.034 289.049 316.462C289.25 315.966 289.508 315.494 289.817 315.055C290.079 314.667 290.424 314.341 290.827 314.098C291.016 313.986 291.223 313.905 291.439 313.859C291.599 313.83 291.763 313.83 291.923 313.859C292.049 313.894 292.166 313.957 292.264 314.042C292.355 314.111 292.437 314.191 292.506 314.281V313.831C292.507 313.686 292.536 313.543 292.591 313.409C292.631 313.299 292.706 313.205 292.805 313.141L293.644 312.649C293.673 312.622 293.711 312.607 293.751 312.607C293.791 312.607 293.829 312.622 293.858 312.649C293.926 312.743 293.961 312.857 293.957 312.973V322.119C293.996 323.488 293.739 324.851 293.203 326.115C292.783 327.109 292.056 327.946 291.126 328.507C290.809 328.701 290.446 328.813 290.073 328.83C289.778 328.848 289.485 328.774 289.234 328.619C288.993 328.441 288.798 328.21 288.665 327.944C288.526 327.623 288.449 327.279 288.437 326.931C288.424 326.785 288.453 326.638 288.522 326.509C288.557 326.393 288.633 326.293 288.736 326.227L289.49 325.805C289.507 325.787 289.528 325.772 289.551 325.762C289.575 325.752 289.6 325.747 289.625 325.747C289.65 325.747 289.675 325.752 289.699 325.762C289.722 325.772 289.743 325.787 289.76 325.805C289.83 325.878 289.892 325.958 289.945 326.044C290.032 326.195 290.175 326.306 290.343 326.354C290.514 326.48 290.77 326.34 291.126 326.199ZM289.789 319.375C289.789 319.75 289.789 320.116 289.789 320.472C289.748 321.034 289.909 321.592 290.244 322.048C290.37 322.156 290.532 322.215 290.699 322.215C290.866 322.215 291.028 322.156 291.154 322.048C291.567 321.783 291.89 321.4 292.079 320.951C292.338 320.364 292.483 319.733 292.506 319.093C292.506 318.882 292.506 318.629 292.506 318.334C292.506 318.038 292.506 317.785 292.506 317.602C292.535 317.098 292.384 316.6 292.079 316.195C291.953 316.08 291.788 316.016 291.617 316.016C291.446 316.016 291.281 316.08 291.154 316.195C290.75 316.459 290.433 316.836 290.244 317.278C289.952 317.94 289.797 318.653 289.789 319.375Z" fill="#FAFAFA"/>
<path d="M297.272 306.88C297.3 306.857 297.336 306.845 297.372 306.845C297.408 306.845 297.443 306.857 297.471 306.88C297.546 306.971 297.582 307.087 297.571 307.204V308.737C297.572 308.884 297.538 309.029 297.471 309.16C297.432 309.265 297.363 309.358 297.272 309.427L296.319 309.976C296.306 309.991 296.289 310.003 296.271 310.011C296.252 310.019 296.233 310.023 296.212 310.023C296.192 310.023 296.172 310.019 296.154 310.011C296.135 310.003 296.119 309.991 296.106 309.976C296.068 309.934 296.04 309.884 296.023 309.831C296.006 309.778 296 309.722 296.006 309.666V308.132C296.005 307.986 296.039 307.841 296.106 307.71C296.145 307.601 296.22 307.507 296.319 307.443L297.272 306.88ZM297.514 320.092C297.515 320.233 297.486 320.372 297.429 320.501C297.383 320.611 297.31 320.708 297.215 320.782L296.362 321.26C296.35 321.275 296.335 321.287 296.317 321.295C296.3 321.303 296.281 321.307 296.262 321.307C296.243 321.307 296.224 321.303 296.207 321.295C296.19 321.287 296.175 321.275 296.163 321.26C296.088 321.169 296.052 321.053 296.063 320.937V311.833C296.062 311.686 296.096 311.542 296.163 311.411C296.203 311.301 296.271 311.204 296.362 311.129L297.215 310.651C297.244 310.624 297.282 310.609 297.322 310.609C297.362 310.609 297.4 310.624 297.429 310.651C297.492 310.741 297.523 310.851 297.514 310.961V320.092Z" fill="#FAFAFA"/>
<path d="M304.997 315.802C304.996 315.947 304.967 316.09 304.912 316.224C304.872 316.334 304.797 316.428 304.698 316.491L303.845 316.984C303.818 317.01 303.782 317.024 303.745 317.024C303.708 317.024 303.672 317.01 303.646 316.984C303.571 316.893 303.535 316.777 303.546 316.66V311.707C303.59 311.123 303.482 310.537 303.233 310.005C303.034 309.653 302.721 309.597 302.28 309.85C301.84 310.142 301.514 310.574 301.355 311.074C301.117 311.738 301.002 312.438 301.013 313.142V318.109C301.013 318.254 300.984 318.398 300.928 318.532C300.893 318.648 300.817 318.747 300.715 318.813L299.875 319.291C299.862 319.306 299.845 319.318 299.827 319.327C299.809 319.335 299.789 319.339 299.768 319.339C299.748 319.339 299.728 319.335 299.71 319.327C299.692 319.318 299.675 319.306 299.662 319.291C299.596 319.202 299.565 319.092 299.576 318.982V309.878C299.574 309.733 299.603 309.589 299.662 309.456C299.697 309.34 299.772 309.24 299.875 309.175L300.715 308.696C300.728 308.681 300.744 308.669 300.763 308.661C300.781 308.653 300.801 308.649 300.821 308.649C300.842 308.649 300.861 308.653 300.88 308.661C300.898 308.669 300.915 308.681 300.928 308.696C300.992 308.792 301.022 308.906 301.013 309.02V309.456C301.201 309.027 301.429 308.617 301.696 308.232C301.931 307.877 302.248 307.582 302.621 307.374C302.945 307.14 303.348 307.039 303.745 307.092C303.903 307.131 304.05 307.203 304.177 307.302C304.305 307.402 304.41 307.527 304.485 307.669C304.692 308.05 304.827 308.465 304.883 308.893C304.959 309.453 304.997 310.017 304.997 310.582V315.802Z" fill="#FAFAFA"/>
<path d="M376.763 274.842L362.948 282.722L365.096 263.557C363.432 262.685 362.379 260.56 362.379 257.507C362.379 252.062 365.737 245.744 369.863 243.436C373.989 241.129 377.332 243.577 377.332 249.065C377.247 252.293 376.315 255.445 374.629 258.211L376.763 274.842Z" fill="#455A64"/>
<path d="M376.779 274.841L364.614 267.904L362.949 282.735L376.779 274.841Z" fill="#37474F"/>
<path d="M369.835 243.393C366.826 245.404 364.583 248.35 363.461 251.765L374.601 258.125C376.288 255.36 377.219 252.208 377.305 248.979C377.333 243.534 373.99 241.044 369.835 243.393Z" fill="#37474F"/>
<path d="M302.681 179.583C297.943 176.881 291.413 177.261 284.185 181.384C269.758 189.629 258.062 209.652 258.062 226.128C258.062 234.402 261.022 240.199 265.774 242.872L274.979 248.163C279.703 250.865 286.234 250.471 293.476 246.348C307.903 238.117 319.598 218.08 319.598 201.603C319.598 193.372 316.667 187.533 311.943 184.901" fill="#000C40"/>
<path d="M293.462 186.688C279.035 194.934 267.34 214.97 267.34 231.433C267.34 247.896 279.035 254.593 293.462 246.348C307.889 238.102 319.599 218.08 319.584 201.603C319.57 185.126 307.875 178.457 293.462 186.688Z" fill="#000C40"/>
<path d="M307.871 223.244V225.13C304.415 231.231 299.458 236.371 293.458 240.073C287.838 243.267 282.759 243.619 279.031 241.578V237.695C279.222 233.654 280.389 229.718 282.433 226.215C284.478 222.712 287.341 219.744 290.783 217.56L294.582 215.393C297.94 213.479 301.212 213.226 303.773 214.703C306.334 216.181 307.871 219.29 307.871 223.244Z" fill="#000C40"/>
<path opacity="0.4" d="M302.679 179.583L311.927 184.902C307.203 182.186 300.673 182.566 293.431 186.689C283.984 192.092 275.703 202.547 271.122 213.747L261.859 208.442C266.455 197.186 274.664 186.787 284.169 181.384C291.425 177.276 297.955 176.882 302.679 179.583Z" fill="white"/>
<path opacity="0.2" d="M274.65 247.952L265.786 242.873C261.034 240.2 258.074 234.431 258.074 226.129L267.337 231.448C267.393 239.468 270.125 245.181 274.65 247.952Z" fill="black"/>
<path opacity="0.1" d="M261.889 208.441L271.151 213.746C268.778 219.353 267.503 225.355 267.395 231.433L258.133 226.114C258.247 220.042 259.521 214.045 261.889 208.441Z" fill="black"/>
<path d="M290.16 214.507C289.278 214.516 288.408 214.293 287.642 213.86C286.718 213.251 285.978 212.406 285.5 211.415C285.021 210.425 284.823 209.325 284.924 208.231C285.045 205.668 285.785 203.17 287.082 200.947C288.379 198.724 290.196 196.841 292.38 195.455C293.257 194.762 294.325 194.348 295.445 194.265C296.564 194.183 297.683 194.436 298.654 194.993C299.626 195.549 300.405 196.382 300.89 197.384C301.375 198.385 301.543 199.508 301.372 200.605C301.249 203.168 300.508 205.665 299.211 207.887C297.914 210.11 296.099 211.993 293.916 213.381C292.787 214.078 291.491 214.467 290.16 214.507Z" fill="white"/>
<path d="M303.773 214.69C301.212 213.212 297.94 213.466 294.582 215.379L290.783 217.546C287.339 219.732 284.475 222.702 282.43 226.208C280.385 229.713 279.22 233.652 279.031 237.695V241.593C282.759 243.633 287.838 243.281 293.458 240.087C299.458 236.385 304.415 231.245 307.871 225.144V223.259C307.871 219.291 306.391 216.181 303.773 214.69Z" fill="white"/>
<path d="M596.273 458.111C596.273 458.111 598.166 441.677 606.432 428.915C614.698 416.153 626.052 408.203 636.652 407.372C647.252 406.542 655.817 416.195 644.477 422.85C633.138 429.506 612.991 436.231 603.715 460.996L596.273 458.111Z" fill="#000C40"/>
<path opacity="0.1" d="M596.273 458.111C596.273 458.111 598.166 441.677 606.432 428.915C614.698 416.153 626.052 408.203 636.652 407.372C647.252 406.542 655.817 416.195 644.477 422.85C633.138 429.506 612.991 436.231 603.715 460.996L596.273 458.111Z" fill="black"/>
<path d="M599.39 453.834H599.276C599.137 453.778 599.026 453.669 598.967 453.532C598.908 453.395 598.907 453.241 598.963 453.103C610.146 425.876 631.431 414.493 641.134 412.298C641.207 412.281 641.283 412.279 641.357 412.291C641.43 412.303 641.501 412.33 641.564 412.369C641.628 412.408 641.683 412.459 641.726 412.519C641.77 412.58 641.801 412.648 641.817 412.72C641.834 412.792 641.836 412.866 641.824 412.939C641.812 413.012 641.785 413.082 641.745 413.145C641.706 413.208 641.654 413.262 641.593 413.305C641.532 413.348 641.463 413.379 641.391 413.395C631.886 415.562 611.014 426.734 600.016 453.539C599.961 453.651 599.869 453.741 599.755 453.795C599.642 453.849 599.513 453.863 599.39 453.834Z" fill="white"/>
<path d="M655.988 454.158C655.035 456.297 652.673 457.422 650.482 458.295C648.291 459.167 645.901 460.11 644.706 462.136C642.315 466.217 646.242 471.985 643.681 475.939C643.078 476.735 642.319 477.403 641.448 477.901C640.578 478.399 639.614 478.718 638.616 478.838C636.98 479.133 635.315 479.133 633.665 479.274C632.874 479.264 632.085 479.203 631.303 479.091C629.004 478.584 626.6 478.836 624.459 479.809C621.173 481.638 620.191 485.733 618.171 488.898C616.936 490.762 615.31 492.341 613.402 493.526C611.494 494.711 609.35 495.475 607.116 495.765C605.693 495.948 602.847 496.215 601.425 495.385C601.313 495.331 601.208 495.265 601.112 495.188C600.898 494.963 600.642 494.667 600.528 494.513C600.521 494.48 600.521 494.447 600.528 494.414C599.945 492.289 600.898 490.094 600.941 487.899V487.505C600.841 484.959 600.77 482.426 600.713 479.893C600.59 475.203 600.543 470.513 600.571 465.823C600.571 462.783 600.229 459.463 601.538 456.606C602.961 453.454 606.547 453.384 607.898 450.303C608.439 449.064 608.723 447.756 609.25 446.504C610.063 444.683 611.367 443.118 613.017 441.979C614.668 440.84 616.603 440.171 618.612 440.045C624.858 439.736 630.449 444.731 636.695 444.266C638.303 444.14 639.882 443.647 641.476 443.366C646.527 442.423 652.374 443.844 655.22 448.079C655.845 448.952 656.241 449.963 656.375 451.023C656.51 452.084 656.377 453.161 655.988 454.158Z" fill="#000C40"/>
<path d="M599.903 484.662C599.768 484.623 599.655 484.533 599.586 484.413C599.517 484.292 599.498 484.149 599.533 484.015C608.155 452.018 642.217 447.431 650.227 447.966C650.297 447.969 650.366 447.987 650.43 448.017C650.493 448.048 650.55 448.091 650.596 448.143C650.643 448.196 650.678 448.257 650.7 448.323C650.722 448.389 650.731 448.459 650.725 448.529C650.71 448.666 650.643 448.792 650.537 448.881C650.431 448.97 650.294 449.015 650.156 449.007C642.345 448.458 608.995 452.975 600.557 484.296C600.518 484.429 600.427 484.542 600.305 484.61C600.183 484.678 600.039 484.697 599.903 484.662Z" fill="white"/>
<path d="M637.789 468.453C637.681 468.438 637.581 468.389 637.504 468.313C634.355 465.614 630.643 463.635 626.631 462.519C622.62 461.402 618.409 461.175 614.299 461.854C614.16 461.867 614.022 461.828 613.911 461.744C613.801 461.661 613.726 461.539 613.701 461.404C613.68 461.266 613.715 461.126 613.797 461.013C613.88 460.9 614.003 460.823 614.142 460.799C618.429 460.093 622.821 460.334 627.002 461.504C631.184 462.674 635.052 464.745 638.33 467.567C638.38 467.615 638.42 467.673 638.447 467.737C638.475 467.801 638.489 467.87 638.489 467.94C638.489 468.009 638.475 468.078 638.447 468.142C638.42 468.206 638.38 468.264 638.33 468.313C638.265 468.388 638.179 468.443 638.082 468.468C637.985 468.493 637.883 468.488 637.789 468.453Z" fill="white"/>
<path d="M546.786 277.417C540.81 287.407 535.062 296.088 531.021 300.253C523.352 303.771 505.34 309.202 498.297 310.103C497.06 310.258 495.808 309.969 494.769 309.287C491.994 307.486 489.846 307.19 486.929 306.191C484.638 305.417 483.671 304.334 483.244 304.784C482.803 305.295 482.582 305.956 482.627 306.627C482.672 307.297 482.98 307.923 483.486 308.372C484.58 309.4 485.793 310.298 487.1 311.045C483.976 311.812 480.717 311.87 477.567 311.214C471.463 309.624 468.589 312.523 472.716 319.08C474.138 321.415 480 325.172 491.781 324.159C495.983 323.935 500.169 323.465 504.316 322.752C515.612 320.36 528.176 318.053 535.901 315.717C538.775 314.599 541.347 312.836 543.414 310.567C556.404 295.919 560.715 285.479 566.406 275.995L565.922 260.518C556.702 260.208 551.78 269.059 546.786 277.417Z" fill="#FFA8A7"/>
<path d="M567.504 260.208C564.83 259.836 562.105 260.194 559.623 261.243C557.14 262.292 554.995 263.993 553.418 266.16C547.101 274.166 535.918 293.387 535.918 293.387C535.918 293.387 539.574 303.025 549.449 304.643L565.313 283.453C565.313 283.453 572.825 268.735 567.504 260.208Z" fill="#455A64"/>
<path d="M601.805 476.249H591.461V494.485H601.805V476.249Z" fill="#FFA8A7"/>
<path d="M565.95 475.279L555.62 475.644L555.094 456.339L565.95 455.974V475.279Z" fill="#FFA8A7"/>
<path d="M603.255 318.39C603.255 328.549 601.747 410.398 601.747 410.398C601.975 413.325 604.592 418.728 604.066 429.97C603.284 445.237 602.245 485.367 602.245 485.367C600.469 486.265 598.51 486.752 596.516 486.791C594.522 486.83 592.545 486.42 590.735 485.592C590.735 485.592 582.34 429.309 580.491 414.239C578.869 401.027 574.714 357.295 574.714 357.295L569.123 408.991C570.308 414.538 570.739 420.216 570.403 425.876C569.919 432.911 566.59 469.326 566.59 469.326C564.803 470.369 562.799 470.995 560.731 471.159C558.663 471.322 556.584 471.018 554.653 470.269C554.653 470.269 548.762 415.393 548.649 408.949C548.506 401.632 552.092 318.306 552.092 318.306L603.255 318.39Z" fill="#37474F"/>
<path d="M591.462 489.222V487.703C590.466 488.139 588.176 497.172 584.064 501.028C580.806 504.095 576.367 507.627 575.228 511.046C574.09 514.465 581.417 516.562 584.476 516.013C588.005 515.366 594.151 512.791 595.688 510.385C597.225 507.979 597.95 504.489 599.202 502.744C600.454 501 603.343 499.058 604.011 497.032C604.22 495.136 604.021 493.218 603.428 491.403C602.944 489.518 602.432 487.449 601.806 487.632V488.786C600.347 489.97 598.514 490.608 596.627 490.587C595.119 490.714 591.448 490.404 591.462 489.222Z" fill="#263238"/>
<path d="M555.507 472.352C554.966 472.352 554.525 473.154 553.344 474.477C551.588 476.303 549.534 477.825 547.269 478.979C543.399 480.977 535.886 484.045 532.458 485.635C530.323 486.619 530.423 489.265 532.628 490.77C534.834 492.276 540.141 493.359 546.515 491.896C549.986 491.094 554.511 487.787 557.385 487.97C560.259 488.153 565.594 488.097 567.714 486.563C569.834 485.03 568.98 481.85 568.383 479.106C567.728 476.095 566.96 471.409 565.95 471.62V472.675C564.712 474.617 558.295 475.405 555.564 473.984L555.507 472.352Z" fill="#263238"/>
<path d="M574.715 357.296C569.334 355.554 564.415 352.646 560.316 348.783C560.316 348.783 563.162 354.144 571.357 359.139L569.593 405.305L574.715 357.296Z" fill="#263238"/>
<path d="M597.479 261.699C597.479 261.699 606.016 263.641 605.404 278.894L603.626 303.166V339.609C596.028 348.135 562.365 347.516 550.77 338.933C550.77 338.933 552.078 295.807 552.861 279.203C553.416 267.412 556.162 261.474 567.886 260.18L582.298 260.799L597.479 261.699Z" fill="#000C40"/>
<path d="M586.609 230.012C586.658 232.054 586.298 234.085 585.549 235.989C584.801 237.893 583.678 239.631 582.247 241.104C580.816 242.577 579.105 243.755 577.211 244.57C575.317 245.386 573.279 245.823 571.214 245.855C562.677 245.855 557.669 238.567 555.82 230.012C552.405 214.351 562.706 214.154 571.214 214.154C575.382 214.239 579.344 215.957 582.231 218.931C585.118 221.905 586.693 225.89 586.609 230.012Z" fill="#263238"/>
<path d="M594.465 236.414C594.465 236.414 592.104 247.839 591.15 249.725C590.551 250.86 589.531 251.722 588.305 252.131L588.475 244.097L594.465 236.414Z" fill="#263238"/>
<path d="M591.491 220.05C591.491 220.05 593.185 219.628 594.991 222.414C596.528 224.792 596.884 230.139 594.465 236.485L590.012 237.019L591.491 220.05Z" fill="#263238"/>
<path d="M593.125 222.373L598.588 222.471C598.626 222.122 598.59 221.769 598.483 221.434C598.375 221.1 598.199 220.79 597.966 220.526C597.732 220.262 597.445 220.048 597.124 219.899C596.803 219.749 596.454 219.667 596.099 219.657C595.352 219.668 594.635 219.951 594.086 220.452C593.537 220.953 593.195 221.637 593.125 222.373Z" fill="#263238"/>
<path d="M593.795 221.092L597.836 217.25C597.603 216.979 597.316 216.758 596.992 216.602C596.669 216.446 596.316 216.358 595.956 216.343C595.597 216.328 595.238 216.388 594.903 216.517C594.567 216.647 594.263 216.844 594.008 217.095C593.472 217.614 593.153 218.312 593.114 219.052C593.074 219.793 593.317 220.52 593.795 221.092Z" fill="#263238"/>
<path d="M588.671 236.95C589.568 237.498 590.834 235.74 591.944 234.544C593.054 233.347 596.497 232.25 598.289 236.133C600.082 240.017 597.023 243.858 594.462 245.125C589.867 247.376 588.415 244.097 588.415 244.097L588.031 262.192C581.572 272.042 566.917 271.732 572.196 261.714V256.212C570.024 256.569 567.819 256.683 565.622 256.55C562.037 255.987 559.789 253.075 558.693 249.078C556.958 242.662 556.289 237.484 557.769 224.863C559.391 211.046 575.013 210.891 583.379 216.421C591.745 221.95 588.671 236.95 588.671 236.95Z" fill="#FFA8A7"/>
<path d="M569.211 222.71C572.939 222.344 576.624 221.584 580.366 221.303C581.173 221.206 581.99 221.244 582.785 221.415C585.63 222.189 585.289 225.482 585.744 227.775C586.526 231.743 587.167 238.455 588.675 238.483C589.13 238.483 590.837 235.57 591.947 234.529C592.557 233.632 592.902 232.584 592.943 231.504C593.228 229.872 593.37 228.197 593.498 226.537C593.612 225.13 593.754 223.723 593.754 222.316C593.819 220.726 593.69 219.134 593.37 217.574C593.013 216.247 592.329 215.029 591.378 214.028L591.094 213.719C589.218 211.78 586.942 210.263 584.421 209.272C580.793 207.928 576.988 207.108 573.124 206.838C569.265 206.568 565.423 206.098 561.614 205.431C561.395 205.368 561.163 205.368 560.945 205.431C560.79 205.516 560.66 205.637 560.565 205.785C560.471 205.932 560.415 206.101 560.404 206.275C560.248 207.15 560.346 208.05 560.686 208.872C561.026 209.693 561.594 210.403 562.325 210.919C559.75 211.116 556.79 209.793 554.315 209.117C554.114 209.034 553.899 208.99 553.681 208.99C553.464 208.99 553.249 209.034 553.048 209.117C552.8 209.289 552.623 209.544 552.55 209.835C552.37 210.496 552.346 211.189 552.479 211.861C552.706 213.898 553.471 215.839 554.699 217.49C556.616 219.959 559.326 221.71 562.382 222.456C564.632 222.885 566.935 222.971 569.211 222.71Z" fill="#263238"/>
<path d="M572.211 256.212C572.211 256.212 580.207 254.552 582.996 253.018C584.657 252.119 586.005 250.746 586.866 249.078C586.446 250.754 585.696 252.332 584.66 253.721C582.626 256.423 572.211 258.393 572.211 258.393V256.212Z" fill="#F28F8F"/>
<path d="M574.134 234.881C574.118 235.316 574.277 235.738 574.576 236.057C574.874 236.376 575.288 236.565 575.727 236.584C576.076 236.612 576.425 236.536 576.729 236.364C577.033 236.193 577.277 235.935 577.43 235.624C577.583 235.313 577.638 234.964 577.587 234.622C577.536 234.279 577.381 233.961 577.143 233.707C576.906 233.453 576.596 233.276 576.255 233.199C575.914 233.122 575.558 233.149 575.233 233.276C574.907 233.403 574.628 233.624 574.432 233.911C574.236 234.197 574.132 234.535 574.134 234.881Z" fill="#263238"/>
<path d="M576.695 228.057L580.124 230.013C580.374 229.531 580.43 228.973 580.283 228.451C580.135 227.93 579.794 227.482 579.327 227.199C579.1 227.072 578.849 226.994 578.589 226.97C578.33 226.945 578.068 226.974 577.82 227.054C577.573 227.135 577.345 227.266 577.151 227.439C576.957 227.611 576.802 227.822 576.695 228.057Z" fill="#263238"/>
<path d="M572.922 246.292L569.266 247.699C569.339 247.947 569.463 248.178 569.631 248.376C569.798 248.575 570.005 248.737 570.239 248.853C570.472 248.969 570.727 249.037 570.988 249.051C571.249 249.066 571.51 249.027 571.755 248.937C572.253 248.725 572.651 248.334 572.867 247.843C573.084 247.351 573.104 246.797 572.922 246.292Z" fill="#F28F8F"/>
<path d="M559.42 229.506L562.55 227.03C562.41 226.814 562.225 226.629 562.008 226.488C561.79 226.347 561.546 226.253 561.289 226.212C561.033 226.171 560.771 226.184 560.52 226.249C560.269 226.315 560.034 226.432 559.832 226.594C559.414 226.944 559.141 227.435 559.065 227.972C558.988 228.509 559.115 229.055 559.42 229.506Z" fill="#263238"/>
<path d="M560.802 234.417C560.827 234.725 560.942 235.019 561.133 235.263C561.324 235.507 561.583 235.691 561.878 235.792C562.173 235.894 562.492 235.908 562.795 235.833C563.098 235.758 563.372 235.597 563.585 235.371C563.797 235.144 563.938 234.861 563.99 234.557C564.042 234.252 564.004 233.939 563.879 233.656C563.755 233.373 563.549 233.132 563.289 232.962C563.028 232.792 562.722 232.701 562.41 232.7C562.19 232.707 561.974 232.758 561.774 232.848C561.574 232.939 561.394 233.067 561.244 233.227C561.095 233.387 560.979 233.574 560.903 233.778C560.827 233.982 560.793 234.199 560.802 234.417Z" fill="#263238"/>
<path d="M569.378 233.095L569.193 243.099L563.445 241.804L569.378 233.095Z" fill="#F28F8F"/>
<path d="M432.879 316.885L441.8 311.791L445.328 307.556L436.422 312.649L432.879 316.885Z" fill="#000C40"/>
<path opacity="0.4" d="M432.879 316.885L441.8 311.791L445.328 307.556L436.422 312.649L432.879 316.885Z" fill="black"/>
<path d="M457.137 330.73L466.058 325.637L473.499 319.122L464.592 324.202L457.137 330.73Z" fill="#000C40"/>
<path opacity="0.4" d="M457.137 330.73L466.058 325.637L473.499 319.122L464.592 324.202L457.137 330.73Z" fill="black"/>
<path d="M532.914 348.305C535.023 351.101 536.299 354.425 536.599 357.901C534.498 355.1 533.223 351.778 532.914 348.305ZM553.644 348.572C550.641 328.381 539.672 308.414 526.611 300.943C520.336 297.355 514.531 297.228 509.879 299.916L501.484 304.7L501.015 304.981C500.641 305.185 500.28 305.41 499.933 305.657C499.244 306.126 498.596 306.653 497.998 307.232L497.714 307.5C497.458 307.753 497.187 308.049 496.946 308.33C496.704 308.611 496.334 309.048 496.049 309.427C495.445 310.214 494.899 311.041 494.413 311.904C494.157 312.34 493.915 312.804 493.687 313.311L420.371 271.465L411.465 276.544V282.173L412.219 282.595L412.93 283.003V284.128L411.508 284.959V288.223L422.278 310.736L432.92 316.829L436.463 312.607L445.853 318.165L451.246 327.297L457.193 330.688L464.634 324.159L473.768 329.38L476.842 341.917L492.194 350.697C492.952 353.888 493.902 357.031 495.039 360.11C495.139 360.42 495.267 360.743 495.395 361.095C500.488 374.321 508.584 385.648 517.718 390.868C518.813 391.511 519.96 392.061 521.147 392.515C521.775 392.762 522.416 392.973 523.068 393.148C523.637 393.298 524.206 393.425 524.775 393.528C526.572 393.852 528.413 393.852 530.21 393.528L530.95 393.345C531.304 393.274 531.651 393.176 531.989 393.049L532.786 392.74C533.068 392.639 533.339 392.512 533.597 392.36C533.86 392.248 534.116 392.121 534.365 391.98L534.735 391.755C534.802 391.733 534.864 391.7 534.92 391.656C536.954 390.503 541.962 387.632 543.328 386.872C550.101 382.989 554.483 373.168 554.483 359.28C554.471 355.695 554.191 352.116 553.644 348.572Z" fill="#000C40"/>
<path d="M530.312 365.344C526.784 363.332 523.938 357.366 523.938 352.019C523.938 346.672 526.784 343.956 530.312 345.955C533.841 347.953 536.672 353.933 536.672 359.294C536.672 364.654 533.827 367.356 530.312 365.344ZM544.725 353.651C541.737 333.474 530.768 313.494 517.692 306.036C511.631 302.575 506.025 302.321 501.473 304.699L501.003 304.981C500.629 305.184 500.268 305.41 499.922 305.656C499.232 306.126 498.585 306.653 497.987 307.232L497.702 307.499C497.446 307.753 497.176 308.048 496.934 308.33C496.692 308.611 496.322 309.047 496.038 309.427C495.434 310.213 494.887 311.041 494.401 311.904C494.145 312.34 493.903 312.804 493.676 313.311C492.349 316.03 491.392 318.912 490.83 321.88L411.453 276.544V282.172L412.207 282.594L412.919 283.002V284.128L411.496 284.958V288.223L422.266 310.736L432.909 316.828L436.451 312.607L445.842 318.165L451.234 327.297L457.181 330.688L464.623 324.159L473.757 329.379L476.83 341.916L492.196 350.696C492.955 353.887 493.905 357.03 495.042 360.11C495.141 360.419 495.269 360.743 495.397 361.095C500.491 374.321 508.587 385.648 517.721 390.868C518.815 391.51 519.962 392.061 521.15 392.514C521.777 392.761 522.419 392.973 523.07 393.148C523.64 393.298 524.209 393.424 524.778 393.527C526.575 393.851 528.416 393.851 530.213 393.527L530.953 393.345C531.306 393.274 531.654 393.175 531.991 393.049L532.788 392.739C533.07 392.639 533.342 392.512 533.599 392.36C533.862 392.247 534.119 392.12 534.367 391.98L534.737 391.755C534.804 391.733 534.867 391.699 534.922 391.656C541.41 387.604 545.579 377.923 545.579 364.373C545.555 360.783 545.27 357.2 544.725 353.651Z" fill="#000C40"/>
<path opacity="0.4" d="M536.671 359.28C536.671 364.641 533.826 367.356 530.312 365.344C526.797 363.332 523.938 357.38 523.938 352.019C523.938 346.658 526.783 343.943 530.312 345.955C531.328 346.567 532.212 347.37 532.915 348.319C533.221 351.793 534.497 355.116 536.6 357.915C536.652 358.368 536.676 358.824 536.671 359.28Z" fill="black"/>
<path opacity="0.4" d="M554.457 359.265C554.457 373.153 550.075 382.974 543.303 386.858C541.88 387.618 536.928 390.488 534.894 391.642C541.382 387.59 545.55 377.909 545.55 364.359C545.535 360.775 545.26 357.196 544.725 353.651C541.737 333.474 530.768 313.494 517.692 306.036C511.631 302.575 506.026 302.321 501.473 304.699L509.867 299.915C514.52 297.228 520.325 297.354 526.599 300.943C539.674 308.414 550.644 328.38 553.632 348.572C554.174 352.111 554.45 355.686 554.457 359.265Z" fill="white"/>
<path d="M545.547 364.332C545.547 377.882 541.379 387.562 534.891 391.615C536.925 390.461 541.933 387.591 543.299 386.831C550.072 382.947 554.454 373.126 554.454 359.238C554.454 358.732 554.454 358.211 554.454 357.69L545.547 362.784C545.533 363.333 545.547 363.839 545.547 364.332Z" fill="#000C40"/>
<path opacity="0.1" d="M545.547 364.332C545.547 377.882 541.379 387.562 534.891 391.615C536.925 390.461 541.933 387.591 543.299 386.831C550.072 382.947 554.454 373.126 554.454 359.238C554.454 358.732 554.454 358.211 554.454 357.69L545.547 362.784C545.533 363.333 545.547 363.839 545.547 364.332Z" fill="black"/>
<path opacity="0.15" d="M491.169 327.635V330.492L411.465 284.987L412.93 284.143V282.961L491.169 327.635Z" fill="black"/>
<path opacity="0.15" d="M491.169 328.817V330.492L411.465 284.987L412.93 284.143V284.129L491.169 328.817Z" fill="black"/>
<path opacity="0.15" d="M525.828 386.844C522.808 386.767 519.862 385.898 517.292 384.326C504.302 376.911 493.73 354.848 493.73 335.149C493.73 323.653 497.245 315.07 503.377 311.566C507.645 309.118 512.696 309.428 518.003 312.453C530.979 319.868 541.55 342.001 541.55 361.7C541.55 373.182 538.036 381.779 531.904 385.269C530.054 386.313 527.958 386.857 525.828 386.844ZM509.538 311.355C507.642 311.345 505.776 311.83 504.131 312.762C498.54 315.956 495.196 324.329 495.196 335.135C495.196 354.383 505.44 375.94 518.046 383.088C522.869 385.902 527.436 386.155 531.235 383.988C536.827 380.794 540.17 372.436 540.17 361.63C540.17 342.367 529.926 320.825 517.334 313.663C514.981 312.247 512.292 311.47 509.538 311.412V311.355Z" fill="black"/>
<path opacity="0.4" d="M493.617 313.283C492.291 316.002 491.334 318.884 490.772 321.852L411.395 276.516L420.301 271.437L493.617 313.283Z" fill="white"/>
<path d="M596.784 317.687C600.938 309.906 605.691 292.43 608.052 283.608C611.41 271.085 605.975 263.205 599.8 262.882C595.944 263.473 583.239 309.16 583.239 309.16C581.816 310.272 562.509 319.967 556.306 322.401C555.196 322.816 553.972 322.816 552.863 322.401C549.889 321.331 547.854 321.528 544.938 321.247C542.647 321.022 541.495 320.22 541.196 320.698C540.924 321.292 540.89 321.965 541.098 322.583C541.306 323.201 541.743 323.719 542.32 324.033C543.576 324.756 544.913 325.332 546.304 325.75C543.81 326.498 541.211 326.844 538.606 326.777C532.631 326.65 530.482 329.211 535.121 335.219C537.966 338.962 542.675 340.144 553.19 336.556C556.206 335.515 560.304 333.502 564.131 332.138C572.013 329.324 574.091 328.986 580.095 326.974C588.845 324.047 594.934 321.148 596.784 317.687Z" fill="#FFA8A7"/>
<path d="M597.479 261.7C601.107 262.193 604.593 262.995 606.741 265.921C608.89 268.848 610.611 272.957 608.506 284.143C606.893 292.01 604.735 299.758 602.046 307.331C602.046 307.331 593.595 310.905 584.617 301.844L590.792 278.233C590.792 278.233 591.788 262.882 597.479 261.7Z" fill="#455A64"/>
</svg>
